solid OpenSCAD_Model
  facet normal -0.951057 -0.309017 0
    outer loop
      vertex -2.42705 -1.76336 4
      vertex -3 3.67394e-16 4
      vertex -3 3.67394e-16 0
    endloop
  endfacet
  facet normal -0.951057 -0.309017 0
    outer loop
      vertex -2.42705 -1.76336 0
      vertex -2.42705 -1.76336 4
      vertex -3 3.67394e-16 0
    endloop
  endfacet
  facet normal 0 0 1
    outer loop
      vertex -14 55.84 0
      vertex -6 15.5 0
      vertex -6 32.84 0
    endloop
  endfacet
  facet normal 0 0 1
    outer loop
      vertex -14 55.84 0
      vertex -6 32.84 0
      vertex -5.78148 34.9191 0
    endloop
  endfacet
  facet normal 0 0 1
    outer loop
      vertex -14 55.84 0
      vertex -5.78148 34.9191 0
      vertex -5.13545 36.9074 0
    endloop
  endfacet
  facet normal 0 0 1
    outer loop
      vertex -14 55.84 0
      vertex -5.13545 36.9074 0
      vertex -4.09017 38.7179 0
    endloop
  endfacet
  facet normal 0 0 1
    outer loop
      vertex -14 55.84 0
      vertex -4.09017 38.7179 0
      vertex -1.7 48.2 0
    endloop
  endfacet
  facet normal 0 0 1
    outer loop
      vertex -4.09017 38.7179 0
      vertex -2.69131 40.2714 0
      vertex -1.7 48.2 0
    endloop
  endfacet
  facet normal 0 0 1
    outer loop
      vertex -2.69131 40.2714 0
      vertex -1.12705 46.4366 0
      vertex -1.7 48.2 0
    endloop
  endfacet
  facet normal 0 -0 1
    outer loop
      vertex -1 41.5003 0
      vertex 0.372949 45.3468 0
      vertex -1.12705 46.4366 0
    endloop
  endfacet
  facet normal 0 -0 1
    outer loop
      vertex 72.6902 42.3506 0
      vertex 73.9729 45.3468 0
      vertex 72.4729 46.4366 0
    endloop
  endfacet
  facet normal -0 0 1
    outer loop
      vertex 70.6453 42.7852 0
      vertex 72.6902 42.3506 0
      vertex 72.4729 46.4366 0
    endloop
  endfacet
  facet normal -0 -0 1
    outer loop
      vertex 77.6902 38.7179 0
      vertex 78.7355 36.9074 0
      vertex 77.3271 46.4366 0
    endloop
  endfacet
  facet normal -0 0 1
    outer loop
      vertex 78.7355 36.9074 0
      vertex 79.3815 34.9191 0
      vertex 92.6 55.84 0
    endloop
  endfacet
  facet normal -0 0 1
    outer loop
      vertex 79.6 32.84 0
      vertex 92.6 -7.5 0
      vertex 92.6 55.84 0
    endloop
  endfacet
  facet normal 0 -0 1
    outer loop
      vertex 79.6 32.84 0
      vertex 92.6 55.84 0
      vertex 79.3815 34.9191 0
    endloop
  endfacet
  facet normal -0 0 1
    outer loop
      vertex 79.6 15.5 0
      vertex 92.6 -7.5 0
      vertex 79.6 32.84 0
    endloop
  endfacet
  facet normal 0 0 1
    outer loop
      vertex 83.4771 2.85317 0
      vertex 78.7355 11.4326 0
      vertex 77.6902 9.62215 0
    endloop
  endfacet
  facet normal 0 0 1
    outer loop
      vertex 81.6229 2.85317 0
      vertex 77.6902 9.62215 0
      vertex 76.2913 8.06855 0
    endloop
  endfacet
  facet normal 0 0 1
    outer loop
      vertex 80.1229 1.76336 0
      vertex 76.2913 8.06855 0
      vertex 74.6 6.83975 0
    endloop
  endfacet
  facet normal 0 0 1
    outer loop
      vertex 2.95472 5.55478 0
      vertex 2.42705 1.76336 0
      vertex 3 0 0
    endloop
  endfacet
  facet normal 0 0 1
    outer loop
      vertex 79.55 3.67394e-16 0
      vertex 74.6 6.83975 0
      vertex 72.6902 5.98943 0
    endloop
  endfacet
  facet normal 0 0 1
    outer loop
      vertex 2.95472 5.55478 0
      vertex 0.90983 5.98943 0
      vertex 0.927051 2.85317 0
    endloop
  endfacet
  facet normal 0 -0 1
    outer loop
      vertex -2.42705 1.76336 0
      vertex -1 6.83975 0
      vertex -2.69131 8.06855 0
    endloop
  endfacet
  facet normal 0 0 1
    outer loop
      vertex -2.42705 1.76336 0
      vertex -2.69131 8.06855 0
      vertex -4.09017 9.62215 0
    endloop
  endfacet
  facet normal 0 0 1
    outer loop
      vertex -14 -7.5 0
      vertex -4.09017 9.62215 0
      vertex -5.13545 11.4326 0
    endloop
  endfacet
  facet normal 0 0 1
    outer loop
      vertex -14 -7.5 0
      vertex -5.13545 11.4326 0
      vertex -5.78148 13.4209 0
    endloop
  endfacet
  facet normal 0 0 1
    outer loop
      vertex -14 -7.5 0
      vertex -5.78148 13.4209 0
      vertex -6 15.5 0
    endloop
  endfacet
  facet normal 0 0 1
    outer loop
      vertex -14 -7.5 0
      vertex -6 15.5 0
      vertex -14 55.84 0
    endloop
  endfacet
  facet normal 0 0 1
    outer loop
      vertex -14 -7.5 0
      vertex -3 3.67394e-16 0
      vertex -4.09017 9.62215 0
    endloop
  endfacet
  facet normal 0 0 1
    outer loop
      vertex 72.6902 5.98943 0
      vertex 70.6453 5.55478 0
      vertex 79.55 3.67394e-16 0
    endloop
  endfacet
  facet normal 0 -0 1
    outer loop
      vertex -3 3.67394e-16 0
      vertex -2.42705 1.76336 0
      vertex -4.09017 9.62215 0
    endloop
  endfacet
  facet normal 0 -0 1
    outer loop
      vertex -0.927051 2.85317 0
      vertex 0.90983 5.98943 0
      vertex -1 6.83975 0
    endloop
  endfacet
  facet normal 0 0 1
    outer loop
      vertex 0.90983 5.98943 0
      vertex -0.927051 2.85317 0
      vertex 0.927051 2.85317 0
    endloop
  endfacet
  facet normal 0 0 1
    outer loop
      vertex -0.927051 2.85317 0
      vertex -1 6.83975 0
      vertex -2.42705 1.76336 0
    endloop
  endfacet
  facet normal 0 -0 1
    outer loop
      vertex 3 0 0
      vertex 70.6453 5.55478 0
      vertex 2.95472 5.55478 0
    endloop
  endfacet
  facet normal 0 -0 1
    outer loop
      vertex 2.42705 1.76336 0
      vertex 2.95472 5.55478 0
      vertex 0.927051 2.85317 0
    endloop
  endfacet
  facet normal 0 0 1
    outer loop
      vertex 70.6453 5.55478 0
      vertex 3 0 0
      vertex 2.42705 -1.76336 0
    endloop
  endfacet
  facet normal 0 0 1
    outer loop
      vertex 92.6 -7.5 0
      vertex 0.927051 -2.85317 0
      vertex -14 -7.5 0
    endloop
  endfacet
  facet normal 0 0 1
    outer loop
      vertex 0.927051 -2.85317 0
      vertex -0.927051 -2.85317 0
      vertex -14 -7.5 0
    endloop
  endfacet
  facet normal 0 0 1
    outer loop
      vertex -0.927051 -2.85317 0
      vertex -2.42705 -1.76336 0
      vertex -14 -7.5 0
    endloop
  endfacet
  facet normal 0 0 1
    outer loop
      vertex -2.42705 -1.76336 0
      vertex -3 3.67394e-16 0
      vertex -14 -7.5 0
    endloop
  endfacet
  facet normal 0 -0 1
    outer loop
      vertex -1.7 48.2 0
      vertex -1.12705 49.9634 0
      vertex -14 55.84 0
    endloop
  endfacet
  facet normal 0 -0 1
    outer loop
      vertex -1.12705 49.9634 0
      vertex 0.372949 51.0532 0
      vertex -14 55.84 0
    endloop
  endfacet
  facet normal 0 -0 1
    outer loop
      vertex 73.9729 51.0532 0
      vertex 92.6 55.84 0
      vertex -14 55.84 0
    endloop
  endfacet
  facet normal 0 0 1
    outer loop
      vertex 72.4729 49.9634 0
      vertex 2.22705 51.0532 0
      vertex 3.72705 49.9634 0
    endloop
  endfacet
  facet normal 0 0 1
    outer loop
      vertex 2.22705 51.0532 0
      vertex -14 55.84 0
      vertex 0.372949 51.0532 0
    endloop
  endfacet
  facet normal 0 0 1
    outer loop
      vertex 72.4729 49.9634 0
      vertex 3.72705 49.9634 0
      vertex 4.3 48.2 0
    endloop
  endfacet
  facet normal 0 0 1
    outer loop
      vertex 70.6453 42.7852 0
      vertex 4.3 48.2 0
      vertex 2.95472 42.7852 0
    endloop
  endfacet
  facet normal 0 0 1
    outer loop
      vertex 4.3 48.2 0
      vertex 3.72705 46.4366 0
      vertex 2.95472 42.7852 0
    endloop
  endfacet
  facet normal 0 0 1
    outer loop
      vertex 2.22705 45.3468 0
      vertex 0.90983 42.3506 0
      vertex 2.95472 42.7852 0
    endloop
  endfacet
  facet normal 0 0 1
    outer loop
      vertex 3.72705 46.4366 0
      vertex 2.22705 45.3468 0
      vertex 2.95472 42.7852 0
    endloop
  endfacet
  facet normal 0 0 1
    outer loop
      vertex 2.22705 45.3468 0
      vertex 0.372949 45.3468 0
      vertex 0.90983 42.3506 0
    endloop
  endfacet
  facet normal 0 0 1
    outer loop
      vertex 0.372949 45.3468 0
      vertex -1 41.5003 0
      vertex 0.90983 42.3506 0
    endloop
  endfacet
  facet normal 0 0 1
    outer loop
      vertex -1 41.5003 0
      vertex -1.12705 46.4366 0
      vertex -2.69131 40.2714 0
    endloop
  endfacet
  facet normal 0 -0 1
    outer loop
      vertex 70.6453 42.7852 0
      vertex 71.9 48.2 0
      vertex 4.3 48.2 0
    endloop
  endfacet
  facet normal 0 -0 1
    outer loop
      vertex 71.9 48.2 0
      vertex 72.4729 49.9634 0
      vertex 4.3 48.2 0
    endloop
  endfacet
  facet normal 0 -0 1
    outer loop
      vertex 78.7355 36.9074 0
      vertex 92.6 55.84 0
      vertex 77.9 48.2 0
    endloop
  endfacet
  facet normal 0 -0 1
    outer loop
      vertex 72.4729 49.9634 0
      vertex 73.9729 51.0532 0
      vertex 2.22705 51.0532 0
    endloop
  endfacet
  facet normal 0 0 1
    outer loop
      vertex 73.9729 51.0532 0
      vertex -14 55.84 0
      vertex 2.22705 51.0532 0
    endloop
  endfacet
  facet normal 0 -0 1
    outer loop
      vertex 75.8271 51.0532 0
      vertex 92.6 55.84 0
      vertex 73.9729 51.0532 0
    endloop
  endfacet
  facet normal -0 0 1
    outer loop
      vertex 72.6902 42.3506 0
      vertex 74.6 41.5003 0
      vertex 73.9729 45.3468 0
    endloop
  endfacet
  facet normal 0 -0 1
    outer loop
      vertex 77.3271 49.9634 0
      vertex 92.6 55.84 0
      vertex 75.8271 51.0532 0
    endloop
  endfacet
  facet normal 0 0 1
    outer loop
      vertex 77.6902 38.7179 0
      vertex 77.3271 46.4366 0
      vertex 76.2913 40.2714 0
    endloop
  endfacet
  facet normal 0 -0 1
    outer loop
      vertex 77.9 48.2 0
      vertex 92.6 55.84 0
      vertex 77.3271 49.9634 0
    endloop
  endfacet
  facet normal 0 0 1
    outer loop
      vertex 77.9 48.2 0
      vertex 77.3271 46.4366 0
      vertex 78.7355 36.9074 0
    endloop
  endfacet
  facet normal 0 0 1
    outer loop
      vertex 75.8271 45.3468 0
      vertex 74.6 41.5003 0
      vertex 76.2913 40.2714 0
    endloop
  endfacet
  facet normal -0 0 1
    outer loop
      vertex 75.8271 45.3468 0
      vertex 76.2913 40.2714 0
      vertex 77.3271 46.4366 0
    endloop
  endfacet
  facet normal -0 0 1
    outer loop
      vertex 73.9729 45.3468 0
      vertex 74.6 41.5003 0
      vertex 75.8271 45.3468 0
    endloop
  endfacet
  facet normal 0 0 1
    outer loop
      vertex 70.6453 42.7852 0
      vertex 72.4729 46.4366 0
      vertex 71.9 48.2 0
    endloop
  endfacet
  facet normal 0 -0 1
    outer loop
      vertex 79.55 3.67394e-16 0
      vertex 80.1229 1.76336 0
      vertex 74.6 6.83975 0
    endloop
  endfacet
  facet normal 0 0 1
    outer loop
      vertex 83.4771 2.85317 0
      vertex 79.3815 13.4209 0
      vertex 78.7355 11.4326 0
    endloop
  endfacet
  facet normal 0 -0 1
    outer loop
      vertex 80.1229 1.76336 0
      vertex 81.6229 2.85317 0
      vertex 76.2913 8.06855 0
    endloop
  endfacet
  facet normal 0 0 1
    outer loop
      vertex 84.9771 1.76336 0
      vertex 79.6 15.5 0
      vertex 79.3815 13.4209 0
    endloop
  endfacet
  facet normal -0 -0 1
    outer loop
      vertex 81.6229 2.85317 0
      vertex 83.4771 2.85317 0
      vertex 77.6902 9.62215 0
    endloop
  endfacet
  facet normal -0 0 1
    outer loop
      vertex 83.4771 -2.85317 0
      vertex 92.6 -7.5 0
      vertex 84.9771 -1.76336 0
    endloop
  endfacet
  facet normal -0 -0 1
    outer loop
      vertex 83.4771 2.85317 0
      vertex 84.9771 1.76336 0
      vertex 79.3815 13.4209 0
    endloop
  endfacet
  facet normal -0 -0 1
    outer loop
      vertex 84.9771 1.76336 0
      vertex 92.6 -7.5 0
      vertex 79.6 15.5 0
    endloop
  endfacet
  facet normal -0 -0 1
    outer loop
      vertex 85.55 0 0
      vertex 92.6 -7.5 0
      vertex 84.9771 1.76336 0
    endloop
  endfacet
  facet normal -0 0 1
    outer loop
      vertex 84.9771 -1.76336 0
      vertex 92.6 -7.5 0
      vertex 85.55 0 0
    endloop
  endfacet
  facet normal 0 0 1
    outer loop
      vertex 92.6 -7.5 0
      vertex 81.6229 -2.85317 0
      vertex 0.927051 -2.85317 0
    endloop
  endfacet
  facet normal 0 0 1
    outer loop
      vertex 70.6453 5.55478 0
      vertex 2.42705 -1.76336 0
      vertex 80.1229 -1.76336 0
    endloop
  endfacet
  facet normal 0 0 1
    outer loop
      vertex 83.4771 -2.85317 0
      vertex 81.6229 -2.85317 0
      vertex 92.6 -7.5 0
    endloop
  endfacet
  facet normal 0 0 1
    outer loop
      vertex 81.6229 -2.85317 0
      vertex 2.42705 -1.76336 0
      vertex 0.927051 -2.85317 0
    endloop
  endfacet
  facet normal 0 0 1
    outer loop
      vertex 70.6453 5.55478 0
      vertex 80.1229 -1.76336 0
      vertex 79.55 3.67394e-16 0
    endloop
  endfacet
  facet normal 0 0 1
    outer loop
      vertex 80.1229 -1.76336 0
      vertex 2.42705 -1.76336 0
      vertex 81.6229 -2.85317 0
    endloop
  endfacet
  facet normal -2.39517e-16 -1 0
    outer loop
      vertex 0.927051 -2.85317 0
      vertex -0.927051 -2.85317 4
      vertex -0.927051 -2.85317 0
    endloop
  endfacet
  facet normal -2.39517e-16 -1 0
    outer loop
      vertex 0.927051 -2.85317 0
      vertex 0.927051 -2.85317 4
      vertex -0.927051 -2.85317 4
    endloop
  endfacet
  facet normal -0.951057 0.309017 0
    outer loop
      vertex -3 3.67394e-16 4
      vertex -2.42705 1.76336 0
      vertex -3 3.67394e-16 0
    endloop
  endfacet
  facet normal -0.951057 0.309017 0
    outer loop
      vertex -3 3.67394e-16 4
      vertex -2.42705 1.76336 4
      vertex -2.42705 1.76336 0
    endloop
  endfacet
  facet normal 0.587785 -0.809017 0
    outer loop
      vertex 2.42705 -1.76336 0
      vertex 0.927051 -2.85317 4
      vertex 0.927051 -2.85317 0
    endloop
  endfacet
  facet normal 0.587785 -0.809017 0
    outer loop
      vertex 2.42705 -1.76336 0
      vertex 2.42705 -1.76336 4
      vertex 0.927051 -2.85317 4
    endloop
  endfacet
  facet normal -0.587785 -0.809017 0
    outer loop
      vertex -0.927051 -2.85317 0
      vertex -2.42705 -1.76336 4
      vertex -2.42705 -1.76336 0
    endloop
  endfacet
  facet normal -0.587785 -0.809017 0
    outer loop
      vertex -0.927051 -2.85317 0
      vertex -0.927051 -2.85317 4
      vertex -2.42705 -1.76336 4
    endloop
  endfacet
  facet normal 2.39517e-16 1 0
    outer loop
      vertex -0.927051 2.85317 4
      vertex 0.927051 2.85317 0
      vertex -0.927051 2.85317 0
    endloop
  endfacet
  facet normal 2.39517e-16 1 0
    outer loop
      vertex -0.927051 2.85317 4
      vertex 0.927051 2.85317 4
      vertex 0.927051 2.85317 0
    endloop
  endfacet
  facet normal 0.951057 0.309017 0
    outer loop
      vertex 3 0 4
      vertex 3 0 0
      vertex 2.42705 1.76336 0
    endloop
  endfacet
  facet normal 0.951057 0.309017 0
    outer loop
      vertex 2.42705 1.76336 4
      vertex 3 0 4
      vertex 2.42705 1.76336 0
    endloop
  endfacet
  facet normal -0.587785 0.809017 0
    outer loop
      vertex -2.42705 1.76336 4
      vertex -0.927051 2.85317 0
      vertex -2.42705 1.76336 0
    endloop
  endfacet
  facet normal -0.587785 0.809017 0
    outer loop
      vertex -2.42705 1.76336 4
      vertex -0.927051 2.85317 4
      vertex -0.927051 2.85317 0
    endloop
  endfacet
  facet normal 0 0 1
    outer loop
      vertex -0.97082 0.705342 4
      vertex -2.42705 1.76336 4
      vertex -3 3.67394e-16 4
    endloop
  endfacet
  facet normal 0 -0 1
    outer loop
      vertex -2.42705 -1.76336 4
      vertex -0.97082 -0.705342 4
      vertex -3 3.67394e-16 4
    endloop
  endfacet
  facet normal 0 -0 1
    outer loop
      vertex 0.927051 -2.85317 4
      vertex 2.42705 -1.76336 4
      vertex 0.37082 -1.14127 4
    endloop
  endfacet
  facet normal 0 0 1
    outer loop
      vertex 0.37082 -1.14127 4
      vertex -0.97082 -0.705342 4
      vertex -0.927051 -2.85317 4
    endloop
  endfacet
  facet normal 0 0 1
    outer loop
      vertex -0.927051 2.85317 4
      vertex -0.97082 0.705342 4
      vertex 0.37082 1.14127 4
    endloop
  endfacet
  facet normal 0 0 1
    outer loop
      vertex -0.927051 -2.85317 4
      vertex -0.97082 -0.705342 4
      vertex -2.42705 -1.76336 4
    endloop
  endfacet
  facet normal 0 0 1
    outer loop
      vertex 0.927051 2.85317 4
      vertex -0.927051 2.85317 4
      vertex 0.37082 1.14127 4
    endloop
  endfacet
  facet normal 0 -0 1
    outer loop
      vertex -0.97082 -0.705342 4
      vertex -0.97082 0.705342 4
      vertex -3 3.67394e-16 4
    endloop
  endfacet
  facet normal 0 -0 1
    outer loop
      vertex -0.97082 0.705342 4
      vertex -0.927051 2.85317 4
      vertex -2.42705 1.76336 4
    endloop
  endfacet
  facet normal 0 0 1
    outer loop
      vertex 0.927051 2.85317 4
      vertex 0.37082 1.14127 4
      vertex 2.42705 1.76336 4
    endloop
  endfacet
  facet normal 0 0 1
    outer loop
      vertex 1.2 0 4
      vertex 3 0 4
      vertex 2.42705 1.76336 4
    endloop
  endfacet
  facet normal -0 0 1
    outer loop
      vertex 0.37082 1.14127 4
      vertex 1.2 0 4
      vertex 2.42705 1.76336 4
    endloop
  endfacet
  facet normal -0 0 1
    outer loop
      vertex 1.2 0 4
      vertex 2.42705 -1.76336 4
      vertex 3 0 4
    endloop
  endfacet
  facet normal 0 0 1
    outer loop
      vertex 1.2 0 4
      vertex 0.37082 -1.14127 4
      vertex 2.42705 -1.76336 4
    endloop
  endfacet
  facet normal 0 0 1
    outer loop
      vertex 0.37082 -1.14127 4
      vertex -0.927051 -2.85317 4
      vertex 0.927051 -2.85317 4
    endloop
  endfacet
  facet normal 0.951057 -0.309017 0
    outer loop
      vertex 3 0 0
      vertex 2.42705 -1.76336 4
      vertex 2.42705 -1.76336 0
    endloop
  endfacet
  facet normal 0.951057 -0.309017 0
    outer loop
      vertex 3 0 0
      vertex 3 0 4
      vertex 2.42705 -1.76336 4
    endloop
  endfacet
  facet normal 0.587785 0.809017 0
    outer loop
      vertex 0.927051 2.85317 4
      vertex 2.42705 1.76336 0
      vertex 0.927051 2.85317 0
    endloop
  endfacet
  facet normal 0.587785 0.809017 0
    outer loop
      vertex 0.927051 2.85317 4
      vertex 2.42705 1.76336 4
      vertex 2.42705 1.76336 0
    endloop
  endfacet
  facet normal -0.951057 -0.309017 0
    outer loop
      vertex 80.1229 -1.76336 4
      vertex 79.55 3.67394e-16 4
      vertex 79.55 3.67394e-16 0
    endloop
  endfacet
  facet normal -0.951057 -0.309017 0
    outer loop
      vertex 80.1229 -1.76336 0
      vertex 80.1229 -1.76336 4
      vertex 79.55 3.67394e-16 0
    endloop
  endfacet
  facet normal -0.587785 -0.809017 0
    outer loop
      vertex 81.6229 -2.85317 0
      vertex 80.1229 -1.76336 4
      vertex 80.1229 -1.76336 0
    endloop
  endfacet
  facet normal -0.587785 -0.809017 0
    outer loop
      vertex 81.6229 -2.85317 0
      vertex 81.6229 -2.85317 4
      vertex 80.1229 -1.76336 4
    endloop
  endfacet
  facet normal -0.951057 0.309017 0
    outer loop
      vertex 79.55 3.67394e-16 4
      vertex 80.1229 1.76336 0
      vertex 79.55 3.67394e-16 0
    endloop
  endfacet
  facet normal -0.951057 0.309017 0
    outer loop
      vertex 79.55 3.67394e-16 4
      vertex 80.1229 1.76336 4
      vertex 80.1229 1.76336 0
    endloop
  endfacet
  facet normal 0.587785 -0.809017 0
    outer loop
      vertex 84.9771 -1.76336 0
      vertex 83.4771 -2.85317 4
      vertex 83.4771 -2.85317 0
    endloop
  endfacet
  facet normal 0.587785 -0.809017 0
    outer loop
      vertex 84.9771 -1.76336 0
      vertex 84.9771 -1.76336 4
      vertex 83.4771 -2.85317 4
    endloop
  endfacet
  facet normal 2.39517e-16 1 0
    outer loop
      vertex 81.6229 2.85317 4
      vertex 83.4771 2.85317 0
      vertex 81.6229 2.85317 0
    endloop
  endfacet
  facet normal 2.39517e-16 1 0
    outer loop
      vertex 81.6229 2.85317 4
      vertex 83.4771 2.85317 4
      vertex 83.4771 2.85317 0
    endloop
  endfacet
  facet normal 0.951057 0.309017 0
    outer loop
      vertex 85.55 0 4
      vertex 85.55 0 0
      vertex 84.9771 1.76336 0
    endloop
  endfacet
  facet normal 0.951057 0.309017 0
    outer loop
      vertex 84.9771 1.76336 4
      vertex 85.55 0 4
      vertex 84.9771 1.76336 0
    endloop
  endfacet
  facet normal -0.587785 0.809017 0
    outer loop
      vertex 80.1229 1.76336 4
      vertex 81.6229 2.85317 0
      vertex 80.1229 1.76336 0
    endloop
  endfacet
  facet normal -0.587785 0.809017 0
    outer loop
      vertex 80.1229 1.76336 4
      vertex 81.6229 2.85317 4
      vertex 81.6229 2.85317 0
    endloop
  endfacet
  facet normal 0 0 1
    outer loop
      vertex 81.6229 2.85317 4
      vertex 80.1229 1.76336 4
      vertex 81.5792 0.705342 4
    endloop
  endfacet
  facet normal 0 -0 1
    outer loop
      vertex 80.1229 -1.76336 4
      vertex 81.5792 -0.705342 4
      vertex 79.55 3.67394e-16 4
    endloop
  endfacet
  facet normal 0 0 1
    outer loop
      vertex 82.9208 -1.14127 4
      vertex 81.5792 -0.705342 4
      vertex 81.6229 -2.85317 4
    endloop
  endfacet
  facet normal 0 -0 1
    outer loop
      vertex 83.4771 -2.85317 4
      vertex 84.9771 -1.76336 4
      vertex 82.9208 -1.14127 4
    endloop
  endfacet
  facet normal 0 0 1
    outer loop
      vertex 81.6229 2.85317 4
      vertex 81.5792 0.705342 4
      vertex 82.9208 1.14127 4
    endloop
  endfacet
  facet normal 0 0 1
    outer loop
      vertex 81.6229 -2.85317 4
      vertex 81.5792 -0.705342 4
      vertex 80.1229 -1.76336 4
    endloop
  endfacet
  facet normal 0 0 1
    outer loop
      vertex 81.5792 0.705342 4
      vertex 80.1229 1.76336 4
      vertex 79.55 3.67394e-16 4
    endloop
  endfacet
  facet normal 0 0 1
    outer loop
      vertex 81.6229 2.85317 4
      vertex 82.9208 1.14127 4
      vertex 83.4771 2.85317 4
    endloop
  endfacet
  facet normal 0 0 1
    outer loop
      vertex 81.5792 0.705342 4
      vertex 79.55 3.67394e-16 4
      vertex 81.5792 -0.705342 4
    endloop
  endfacet
  facet normal 0 0 1
    outer loop
      vertex 83.4771 2.85317 4
      vertex 82.9208 1.14127 4
      vertex 84.9771 1.76336 4
    endloop
  endfacet
  facet normal 0 0 1
    outer loop
      vertex 83.75 0 4
      vertex 85.55 0 4
      vertex 84.9771 1.76336 4
    endloop
  endfacet
  facet normal -0 0 1
    outer loop
      vertex 82.9208 1.14127 4
      vertex 83.75 0 4
      vertex 84.9771 1.76336 4
    endloop
  endfacet
  facet normal -0 0 1
    outer loop
      vertex 83.75 0 4
      vertex 84.9771 -1.76336 4
      vertex 85.55 0 4
    endloop
  endfacet
  facet normal 0 0 1
    outer loop
      vertex 83.75 0 4
      vertex 82.9208 -1.14127 4
      vertex 84.9771 -1.76336 4
    endloop
  endfacet
  facet normal 0 0 1
    outer loop
      vertex 82.9208 -1.14127 4
      vertex 81.6229 -2.85317 4
      vertex 83.4771 -2.85317 4
    endloop
  endfacet
  facet normal -2.39517e-16 -1 0
    outer loop
      vertex 83.4771 -2.85317 0
      vertex 81.6229 -2.85317 4
      vertex 81.6229 -2.85317 0
    endloop
  endfacet
  facet normal -2.39517e-16 -1 0
    outer loop
      vertex 83.4771 -2.85317 0
      vertex 83.4771 -2.85317 4
      vertex 81.6229 -2.85317 4
    endloop
  endfacet
  facet normal 0.951057 -0.309017 0
    outer loop
      vertex 85.55 0 0
      vertex 84.9771 -1.76336 4
      vertex 84.9771 -1.76336 0
    endloop
  endfacet
  facet normal 0.951057 -0.309017 0
    outer loop
      vertex 85.55 0 0
      vertex 85.55 0 4
      vertex 84.9771 -1.76336 4
    endloop
  endfacet
  facet normal 0.587785 0.809017 0
    outer loop
      vertex 83.4771 2.85317 4
      vertex 84.9771 1.76336 0
      vertex 83.4771 2.85317 0
    endloop
  endfacet
  facet normal 0.587785 0.809017 0
    outer loop
      vertex 83.4771 2.85317 4
      vertex 84.9771 1.76336 4
      vertex 84.9771 1.76336 0
    endloop
  endfacet
  facet normal -0.951057 -0.309017 0
    outer loop
      vertex -1.12705 46.4366 4
      vertex -1.7 48.2 4
      vertex -1.7 48.2 0
    endloop
  endfacet
  facet normal -0.951057 -0.309017 0
    outer loop
      vertex -1.12705 46.4366 0
      vertex -1.12705 46.4366 4
      vertex -1.7 48.2 0
    endloop
  endfacet
  facet normal 0 1 0
    outer loop
      vertex 0.372949 51.0532 4
      vertex 2.22705 51.0532 0
      vertex 0.372949 51.0532 0
    endloop
  endfacet
  facet normal -0 1 0
    outer loop
      vertex 0.372949 51.0532 4
      vertex 2.22705 51.0532 4
      vertex 2.22705 51.0532 0
    endloop
  endfacet
  facet normal -0.587785 -0.809017 0
    outer loop
      vertex 0.372949 45.3468 0
      vertex -1.12705 46.4366 4
      vertex -1.12705 46.4366 0
    endloop
  endfacet
  facet normal -0.587785 -0.809017 0
    outer loop
      vertex 0.372949 45.3468 0
      vertex 0.372949 45.3468 4
      vertex -1.12705 46.4366 4
    endloop
  endfacet
  facet normal -0.951057 0.309017 0
    outer loop
      vertex -1.7 48.2 4
      vertex -1.12705 49.9634 0
      vertex -1.7 48.2 0
    endloop
  endfacet
  facet normal -0.951057 0.309017 0
    outer loop
      vertex -1.7 48.2 4
      vertex -1.12705 49.9634 4
      vertex -1.12705 49.9634 0
    endloop
  endfacet
  facet normal 0.587785 -0.809017 0
    outer loop
      vertex 3.72705 46.4366 0
      vertex 2.22705 45.3468 4
      vertex 2.22705 45.3468 0
    endloop
  endfacet
  facet normal 0.587785 -0.809017 0
    outer loop
      vertex 3.72705 46.4366 0
      vertex 3.72705 46.4366 4
      vertex 2.22705 45.3468 4
    endloop
  endfacet
  facet normal -0.587785 0.809017 0
    outer loop
      vertex -1.12705 49.9634 4
      vertex 0.372949 51.0532 0
      vertex -1.12705 49.9634 0
    endloop
  endfacet
  facet normal -0.587785 0.809017 0
    outer loop
      vertex -1.12705 49.9634 4
      vertex 0.372949 51.0532 4
      vertex 0.372949 51.0532 0
    endloop
  endfacet
  facet normal 0 0 1
    outer loop
      vertex 0.32918 48.9053 4
      vertex -1.12705 49.9634 4
      vertex -1.7 48.2 4
    endloop
  endfacet
  facet normal 0 0 1
    outer loop
      vertex 3.72705 46.4366 4
      vertex 2.5 48.2 4
      vertex 1.67082 47.0587 4
    endloop
  endfacet
  facet normal 0 0 1
    outer loop
      vertex 0.372949 45.3468 4
      vertex 0.32918 47.4947 4
      vertex -1.12705 46.4366 4
    endloop
  endfacet
  facet normal 0 0 1
    outer loop
      vertex 1.67082 47.0587 4
      vertex 0.32918 47.4947 4
      vertex 0.372949 45.3468 4
    endloop
  endfacet
  facet normal 0 -0 1
    outer loop
      vertex 2.22705 45.3468 4
      vertex 3.72705 46.4366 4
      vertex 1.67082 47.0587 4
    endloop
  endfacet
  facet normal 0 0 1
    outer loop
      vertex 0.372949 51.0532 4
      vertex 0.32918 48.9053 4
      vertex 1.67082 49.3413 4
    endloop
  endfacet
  facet normal 0 -0 1
    outer loop
      vertex -1.12705 46.4366 4
      vertex 0.32918 47.4947 4
      vertex -1.7 48.2 4
    endloop
  endfacet
  facet normal 0 0 1
    outer loop
      vertex 2.22705 51.0532 4
      vertex 0.372949 51.0532 4
      vertex 1.67082 49.3413 4
    endloop
  endfacet
  facet normal 0 -0 1
    outer loop
      vertex 0.32918 47.4947 4
      vertex 0.32918 48.9053 4
      vertex -1.7 48.2 4
    endloop
  endfacet
  facet normal 0 -0 1
    outer loop
      vertex 0.32918 48.9053 4
      vertex 0.372949 51.0532 4
      vertex -1.12705 49.9634 4
    endloop
  endfacet
  facet normal 0 0 1
    outer loop
      vertex 2.22705 51.0532 4
      vertex 1.67082 49.3413 4
      vertex 3.72705 49.9634 4
    endloop
  endfacet
  facet normal 0 0 1
    outer loop
      vertex 2.5 48.2 4
      vertex 4.3 48.2 4
      vertex 3.72705 49.9634 4
    endloop
  endfacet
  facet normal -0 0 1
    outer loop
      vertex 1.67082 49.3413 4
      vertex 2.5 48.2 4
      vertex 3.72705 49.9634 4
    endloop
  endfacet
  facet normal -0 0 1
    outer loop
      vertex 2.5 48.2 4
      vertex 3.72705 46.4366 4
      vertex 4.3 48.2 4
    endloop
  endfacet
  facet normal 0 0 1
    outer loop
      vertex 2.22705 45.3468 4
      vertex 1.67082 47.0587 4
      vertex 0.372949 45.3468 4
    endloop
  endfacet
  facet normal 0 -1 0
    outer loop
      vertex 2.22705 45.3468 0
      vertex 0.372949 45.3468 4
      vertex 0.372949 45.3468 0
    endloop
  endfacet
  facet normal 0 -1 0
    outer loop
      vertex 2.22705 45.3468 0
      vertex 2.22705 45.3468 4
      vertex 0.372949 45.3468 4
    endloop
  endfacet
  facet normal 0.951057 -0.309017 0
    outer loop
      vertex 4.3 48.2 0
      vertex 3.72705 46.4366 4
      vertex 3.72705 46.4366 0
    endloop
  endfacet
  facet normal 0.951057 -0.309017 0
    outer loop
      vertex 4.3 48.2 0
      vertex 4.3 48.2 4
      vertex 3.72705 46.4366 4
    endloop
  endfacet
  facet normal 0.587785 0.809017 0
    outer loop
      vertex 2.22705 51.0532 4
      vertex 3.72705 49.9634 0
      vertex 2.22705 51.0532 0
    endloop
  endfacet
  facet normal 0.587785 0.809017 0
    outer loop
      vertex 2.22705 51.0532 4
      vertex 3.72705 49.9634 4
      vertex 3.72705 49.9634 0
    endloop
  endfacet
  facet normal 0.951057 0.309017 0
    outer loop
      vertex 4.3 48.2 4
      vertex 4.3 48.2 0
      vertex 3.72705 49.9634 0
    endloop
  endfacet
  facet normal 0.951057 0.309017 0
    outer loop
      vertex 3.72705 49.9634 4
      vertex 4.3 48.2 4
      vertex 3.72705 49.9634 0
    endloop
  endfacet
  facet normal -0.951057 -0.309017 0
    outer loop
      vertex 72.4729 46.4366 4
      vertex 71.9 48.2 4
      vertex 71.9 48.2 0
    endloop
  endfacet
  facet normal -0.951057 -0.309017 0
    outer loop
      vertex 72.4729 46.4366 0
      vertex 72.4729 46.4366 4
      vertex 71.9 48.2 0
    endloop
  endfacet
  facet normal 0 1 0
    outer loop
      vertex 73.9729 51.0532 4
      vertex 75.8271 51.0532 0
      vertex 73.9729 51.0532 0
    endloop
  endfacet
  facet normal -0 1 0
    outer loop
      vertex 73.9729 51.0532 4
      vertex 75.8271 51.0532 4
      vertex 75.8271 51.0532 0
    endloop
  endfacet
  facet normal 0.951057 0.309017 0
    outer loop
      vertex 77.9 48.2 4
      vertex 77.9 48.2 0
      vertex 77.3271 49.9634 0
    endloop
  endfacet
  facet normal 0.951057 0.309017 0
    outer loop
      vertex 77.3271 49.9634 4
      vertex 77.9 48.2 4
      vertex 77.3271 49.9634 0
    endloop
  endfacet
  facet normal -0.587785 -0.809017 0
    outer loop
      vertex 73.9729 45.3468 0
      vertex 72.4729 46.4366 4
      vertex 72.4729 46.4366 0
    endloop
  endfacet
  facet normal -0.587785 -0.809017 0
    outer loop
      vertex 73.9729 45.3468 0
      vertex 73.9729 45.3468 4
      vertex 72.4729 46.4366 4
    endloop
  endfacet
  facet normal -0.951057 0.309017 0
    outer loop
      vertex 71.9 48.2 4
      vertex 72.4729 49.9634 0
      vertex 71.9 48.2 0
    endloop
  endfacet
  facet normal -0.951057 0.309017 0
    outer loop
      vertex 71.9 48.2 4
      vertex 72.4729 49.9634 4
      vertex 72.4729 49.9634 0
    endloop
  endfacet
  facet normal 0.587785 -0.809017 0
    outer loop
      vertex 77.3271 46.4366 0
      vertex 75.8271 45.3468 4
      vertex 75.8271 45.3468 0
    endloop
  endfacet
  facet normal 0.587785 -0.809017 0
    outer loop
      vertex 77.3271 46.4366 0
      vertex 77.3271 46.4366 4
      vertex 75.8271 45.3468 4
    endloop
  endfacet
  facet normal 0.587785 0.809017 0
    outer loop
      vertex 75.8271 51.0532 4
      vertex 77.3271 49.9634 0
      vertex 75.8271 51.0532 0
    endloop
  endfacet
  facet normal 0.587785 0.809017 0
    outer loop
      vertex 75.8271 51.0532 4
      vertex 77.3271 49.9634 4
      vertex 77.3271 49.9634 0
    endloop
  endfacet
  facet normal -0.587785 0.809017 0
    outer loop
      vertex 72.4729 49.9634 4
      vertex 73.9729 51.0532 0
      vertex 72.4729 49.9634 0
    endloop
  endfacet
  facet normal -0.587785 0.809017 0
    outer loop
      vertex 72.4729 49.9634 4
      vertex 73.9729 51.0532 4
      vertex 73.9729 51.0532 0
    endloop
  endfacet
  facet normal 0 0 1
    outer loop
      vertex 73.9292 48.9053 4
      vertex 72.4729 49.9634 4
      vertex 71.9 48.2 4
    endloop
  endfacet
  facet normal 0 0 1
    outer loop
      vertex 77.3271 46.4366 4
      vertex 76.1 48.2 4
      vertex 75.2708 47.0587 4
    endloop
  endfacet
  facet normal 0 0 1
    outer loop
      vertex 73.9729 45.3468 4
      vertex 73.9292 47.4947 4
      vertex 72.4729 46.4366 4
    endloop
  endfacet
  facet normal 0 0 1
    outer loop
      vertex 75.2708 47.0587 4
      vertex 73.9292 47.4947 4
      vertex 73.9729 45.3468 4
    endloop
  endfacet
  facet normal 0 0 1
    outer loop
      vertex 73.9729 51.0532 4
      vertex 73.9292 48.9053 4
      vertex 75.2708 49.3413 4
    endloop
  endfacet
  facet normal 0 -0 1
    outer loop
      vertex 77.3271 46.4366 4
      vertex 77.9 48.2 4
      vertex 76.1 48.2 4
    endloop
  endfacet
  facet normal 0 -0 1
    outer loop
      vertex 72.4729 46.4366 4
      vertex 73.9292 47.4947 4
      vertex 71.9 48.2 4
    endloop
  endfacet
  facet normal 0 0 1
    outer loop
      vertex 75.8271 51.0532 4
      vertex 73.9729 51.0532 4
      vertex 75.2708 49.3413 4
    endloop
  endfacet
  facet normal 0 -0 1
    outer loop
      vertex 73.9292 47.4947 4
      vertex 73.9292 48.9053 4
      vertex 71.9 48.2 4
    endloop
  endfacet
  facet normal 0 -0 1
    outer loop
      vertex 73.9292 48.9053 4
      vertex 73.9729 51.0532 4
      vertex 72.4729 49.9634 4
    endloop
  endfacet
  facet normal 0 0 1
    outer loop
      vertex 75.8271 51.0532 4
      vertex 75.2708 49.3413 4
      vertex 77.3271 49.9634 4
    endloop
  endfacet
  facet normal 0 0 1
    outer loop
      vertex 76.1 48.2 4
      vertex 77.9 48.2 4
      vertex 77.3271 49.9634 4
    endloop
  endfacet
  facet normal 0 0 1
    outer loop
      vertex 77.3271 46.4366 4
      vertex 75.2708 47.0587 4
      vertex 75.8271 45.3468 4
    endloop
  endfacet
  facet normal 0 -0 1
    outer loop
      vertex 76.1 48.2 4
      vertex 77.3271 49.9634 4
      vertex 75.2708 49.3413 4
    endloop
  endfacet
  facet normal 0 0 1
    outer loop
      vertex 75.8271 45.3468 4
      vertex 75.2708 47.0587 4
      vertex 73.9729 45.3468 4
    endloop
  endfacet
  facet normal 0 -1 0
    outer loop
      vertex 75.8271 45.3468 0
      vertex 73.9729 45.3468 4
      vertex 73.9729 45.3468 0
    endloop
  endfacet
  facet normal 0 -1 0
    outer loop
      vertex 75.8271 45.3468 0
      vertex 75.8271 45.3468 4
      vertex 73.9729 45.3468 4
    endloop
  endfacet
  facet normal 0.951057 -0.309017 0
    outer loop
      vertex 77.9 48.2 0
      vertex 77.3271 46.4366 4
      vertex 77.3271 46.4366 0
    endloop
  endfacet
  facet normal 0.951057 -0.309017 0
    outer loop
      vertex 77.9 48.2 0
      vertex 77.9 48.2 4
      vertex 77.3271 46.4366 4
    endloop
  endfacet
  facet normal 1 -2.36103e-16 0
    outer loop
      vertex -0.97082 -0.705342 4
      vertex -0.97082 0.705342 -4
      vertex -0.97082 0.705342 4
    endloop
  endfacet
  facet normal 1 -2.36103e-16 0
    outer loop
      vertex -0.97082 -0.705342 4
      vertex -0.97082 -0.705342 -4
      vertex -0.97082 0.705342 -4
    endloop
  endfacet
  facet normal 0 0 -1
    outer loop
      vertex -14 55.84 -4
      vertex -6 15.5 -4
      vertex -14 -7.5 -4
    endloop
  endfacet
  facet normal -0 -0 -1
    outer loop
      vertex -6 32.84 -4
      vertex -6 15.5 -4
      vertex -14 55.84 -4
    endloop
  endfacet
  facet normal 0 -0 -1
    outer loop
      vertex -6 15.5 -4
      vertex -5.78148 13.4209 -4
      vertex -14 -7.5 -4
    endloop
  endfacet
  facet normal 0 -0 -1
    outer loop
      vertex -5.78148 13.4209 -4
      vertex -5.13545 11.4326 -4
      vertex -14 -7.5 -4
    endloop
  endfacet
  facet normal 0 -0 -1
    outer loop
      vertex -5.13545 11.4326 -4
      vertex -4.09017 9.62215 -4
      vertex -14 -7.5 -4
    endloop
  endfacet
  facet normal 0 -0 -1
    outer loop
      vertex -4.09017 9.62215 -4
      vertex -0.97082 0.705342 -4
      vertex -14 -7.5 -4
    endloop
  endfacet
  facet normal -0 -0 -1
    outer loop
      vertex -2.69131 8.06855 -4
      vertex -0.97082 0.705342 -4
      vertex -4.09017 9.62215 -4
    endloop
  endfacet
  facet normal -0 -0 -1
    outer loop
      vertex -1 6.83975 -4
      vertex -0.97082 0.705342 -4
      vertex -2.69131 8.06855 -4
    endloop
  endfacet
  facet normal 0 -0 -1
    outer loop
      vertex 97.6 55.84 -4
      vertex 97.6 -7.5 -4
      vertex 79.6 32.84 -4
    endloop
  endfacet
  facet normal -0 0 -1
    outer loop
      vertex 0.37082 1.14127 -4
      vertex -0.97082 0.705342 -4
      vertex -1 6.83975 -4
    endloop
  endfacet
  facet normal 0 0 -1
    outer loop
      vertex 70.6453 5.55478 -4
      vertex 0.37082 -1.14127 -4
      vertex 1.2 0 -4
    endloop
  endfacet
  facet normal 0 0 -1
    outer loop
      vertex 97.6 -7.5 -4
      vertex -14 -7.5 -4
      vertex 81.5792 -0.705342 -4
    endloop
  endfacet
  facet normal 0 -0 -1
    outer loop
      vertex 74.6 6.83975 -4
      vertex 81.5792 0.705342 -4
      vertex 72.6902 5.98943 -4
    endloop
  endfacet
  facet normal 0 -0 -1
    outer loop
      vertex 76.2913 8.06855 -4
      vertex 81.5792 0.705342 -4
      vertex 74.6 6.83975 -4
    endloop
  endfacet
  facet normal 0 -0 -1
    outer loop
      vertex 77.6902 9.62215 -4
      vertex 81.5792 0.705342 -4
      vertex 76.2913 8.06855 -4
    endloop
  endfacet
  facet normal 0 0 -1
    outer loop
      vertex 77.6902 9.62215 -4
      vertex 78.7355 11.4326 -4
      vertex 82.9208 1.14127 -4
    endloop
  endfacet
  facet normal -0 0 -1
    outer loop
      vertex 82.9208 1.14127 -4
      vertex 81.5792 0.705342 -4
      vertex 77.6902 9.62215 -4
    endloop
  endfacet
  facet normal 0 0 -1
    outer loop
      vertex 82.9208 1.14127 -4
      vertex 79.3815 13.4209 -4
      vertex 79.6 15.5 -4
    endloop
  endfacet
  facet normal 0 0 -1
    outer loop
      vertex 97.6 -7.5 -4
      vertex 79.6 15.5 -4
      vertex 79.6 32.84 -4
    endloop
  endfacet
  facet normal 0 0 -1
    outer loop
      vertex 97.6 55.84 -4
      vertex 79.6 32.84 -4
      vertex 79.3815 34.9191 -4
    endloop
  endfacet
  facet normal 0 0 -1
    outer loop
      vertex 97.6 55.84 -4
      vertex 79.3815 34.9191 -4
      vertex 78.7355 36.9074 -4
    endloop
  endfacet
  facet normal 0 0 -1
    outer loop
      vertex 97.6 55.84 -4
      vertex 78.7355 36.9074 -4
      vertex 77.6902 38.7179 -4
    endloop
  endfacet
  facet normal 0 0 -1
    outer loop
      vertex 72.6902 42.3506 -4
      vertex 73.9292 47.4947 -4
      vertex 75.2708 47.0587 -4
    endloop
  endfacet
  facet normal 0 0 -1
    outer loop
      vertex 76.2913 40.2714 -4
      vertex 76.1 48.2 -4
      vertex 77.6902 38.7179 -4
    endloop
  endfacet
  facet normal 0 0 -1
    outer loop
      vertex 74.6 41.5003 -4
      vertex 72.6902 42.3506 -4
      vertex 75.2708 47.0587 -4
    endloop
  endfacet
  facet normal 0 0 -1
    outer loop
      vertex 70.6453 42.7852 -4
      vertex 2.95472 42.7852 -4
      vertex 2.5 48.2 -4
    endloop
  endfacet
  facet normal 0 0 -1
    outer loop
      vertex 0.90983 42.3506 -4
      vertex 0.32918 47.4947 -4
      vertex 1.67082 47.0587 -4
    endloop
  endfacet
  facet normal -0 0 -1
    outer loop
      vertex 0.90983 42.3506 -4
      vertex -1 41.5003 -4
      vertex 0.32918 47.4947 -4
    endloop
  endfacet
  facet normal -0 0 -1
    outer loop
      vertex -1 41.5003 -4
      vertex -2.69131 40.2714 -4
      vertex 0.32918 47.4947 -4
    endloop
  endfacet
  facet normal -0 0 -1
    outer loop
      vertex -2.69131 40.2714 -4
      vertex -4.09017 38.7179 -4
      vertex -14 55.84 -4
    endloop
  endfacet
  facet normal -0 0 -1
    outer loop
      vertex -4.09017 38.7179 -4
      vertex -5.13545 36.9074 -4
      vertex -14 55.84 -4
    endloop
  endfacet
  facet normal -0 0 -1
    outer loop
      vertex -5.13545 36.9074 -4
      vertex -5.78148 34.9191 -4
      vertex -14 55.84 -4
    endloop
  endfacet
  facet normal -0 0 -1
    outer loop
      vertex -5.78148 34.9191 -4
      vertex -6 32.84 -4
      vertex -14 55.84 -4
    endloop
  endfacet
  facet normal 0 0 -1
    outer loop
      vertex -1 6.83975 -4
      vertex 0.90983 5.98943 -4
      vertex 0.37082 1.14127 -4
    endloop
  endfacet
  facet normal -0 0 -1
    outer loop
      vertex -0.97082 -0.705342 -4
      vertex -14 -7.5 -4
      vertex -0.97082 0.705342 -4
    endloop
  endfacet
  facet normal 0 0 -1
    outer loop
      vertex -14 -7.5 -4
      vertex 0.37082 -1.14127 -4
      vertex 81.5792 -0.705342 -4
    endloop
  endfacet
  facet normal -0 0 -1
    outer loop
      vertex 0.37082 -1.14127 -4
      vertex -14 -7.5 -4
      vertex -0.97082 -0.705342 -4
    endloop
  endfacet
  facet normal -0 0 -1
    outer loop
      vertex 70.6453 5.55478 -4
      vertex 1.2 0 -4
      vertex 2.95472 5.55478 -4
    endloop
  endfacet
  facet normal 0 0 -1
    outer loop
      vertex 0.37082 1.14127 -4
      vertex 0.90983 5.98943 -4
      vertex 2.95472 5.55478 -4
    endloop
  endfacet
  facet normal 0 0 -1
    outer loop
      vertex 0.37082 1.14127 -4
      vertex 2.95472 5.55478 -4
      vertex 1.2 0 -4
    endloop
  endfacet
  facet normal 0 0 -1
    outer loop
      vertex 0.32918 48.9053 -4
      vertex -14 55.84 -4
      vertex 1.67082 49.3413 -4
    endloop
  endfacet
  facet normal -0 0 -1
    outer loop
      vertex 0.32918 47.4947 -4
      vertex -2.69131 40.2714 -4
      vertex -14 55.84 -4
    endloop
  endfacet
  facet normal 0 0 -1
    outer loop
      vertex 0.90983 42.3506 -4
      vertex 1.67082 47.0587 -4
      vertex 2.95472 42.7852 -4
    endloop
  endfacet
  facet normal 0 0 -1
    outer loop
      vertex 0.32918 47.4947 -4
      vertex -14 55.84 -4
      vertex 0.32918 48.9053 -4
    endloop
  endfacet
  facet normal 0 0 -1
    outer loop
      vertex 2.95472 42.7852 -4
      vertex 1.67082 47.0587 -4
      vertex 2.5 48.2 -4
    endloop
  endfacet
  facet normal 0 0 -1
    outer loop
      vertex 2.5 48.2 -4
      vertex 1.67082 49.3413 -4
      vertex 73.9292 48.9053 -4
    endloop
  endfacet
  facet normal 0 0 -1
    outer loop
      vertex 2.5 48.2 -4
      vertex 73.9292 48.9053 -4
      vertex 70.6453 42.7852 -4
    endloop
  endfacet
  facet normal 0 0 -1
    outer loop
      vertex 1.67082 49.3413 -4
      vertex -14 55.84 -4
      vertex 73.9292 48.9053 -4
    endloop
  endfacet
  facet normal 0 0 -1
    outer loop
      vertex 70.6453 42.7852 -4
      vertex 73.9292 47.4947 -4
      vertex 72.6902 42.3506 -4
    endloop
  endfacet
  facet normal 0 0 -1
    outer loop
      vertex 73.9292 48.9053 -4
      vertex -14 55.84 -4
      vertex 75.2708 49.3413 -4
    endloop
  endfacet
  facet normal 0 0 -1
    outer loop
      vertex 74.6 41.5003 -4
      vertex 75.2708 47.0587 -4
      vertex 76.2913 40.2714 -4
    endloop
  endfacet
  facet normal -0 0 -1
    outer loop
      vertex 73.9292 47.4947 -4
      vertex 70.6453 42.7852 -4
      vertex 73.9292 48.9053 -4
    endloop
  endfacet
  facet normal 0 0 -1
    outer loop
      vertex 77.6902 38.7179 -4
      vertex 76.1 48.2 -4
      vertex 97.6 55.84 -4
    endloop
  endfacet
  facet normal 0 0 -1
    outer loop
      vertex 75.2708 47.0587 -4
      vertex 76.1 48.2 -4
      vertex 76.2913 40.2714 -4
    endloop
  endfacet
  facet normal 0 0 -1
    outer loop
      vertex 76.1 48.2 -4
      vertex 75.2708 49.3413 -4
      vertex 97.6 55.84 -4
    endloop
  endfacet
  facet normal 0 0 -1
    outer loop
      vertex 75.2708 49.3413 -4
      vertex -14 55.84 -4
      vertex 97.6 55.84 -4
    endloop
  endfacet
  facet normal 0 -0 -1
    outer loop
      vertex 72.6902 5.98943 -4
      vertex 81.5792 -0.705342 -4
      vertex 70.6453 5.55478 -4
    endloop
  endfacet
  facet normal -0 0 -1
    outer loop
      vertex 81.5792 -0.705342 -4
      vertex 0.37082 -1.14127 -4
      vertex 70.6453 5.55478 -4
    endloop
  endfacet
  facet normal 0 0 -1
    outer loop
      vertex 97.6 -7.5 -4
      vertex 81.5792 -0.705342 -4
      vertex 82.9208 -1.14127 -4
    endloop
  endfacet
  facet normal 0 0 -1
    outer loop
      vertex 81.5792 -0.705342 -4
      vertex 72.6902 5.98943 -4
      vertex 81.5792 0.705342 -4
    endloop
  endfacet
  facet normal 0 0 -1
    outer loop
      vertex 97.6 -7.5 -4
      vertex 82.9208 -1.14127 -4
      vertex 83.75 0 -4
    endloop
  endfacet
  facet normal 0 0 -1
    outer loop
      vertex 97.6 -7.5 -4
      vertex 82.9208 1.14127 -4
      vertex 79.6 15.5 -4
    endloop
  endfacet
  facet normal 0 0 -1
    outer loop
      vertex 82.9208 1.14127 -4
      vertex 78.7355 11.4326 -4
      vertex 79.3815 13.4209 -4
    endloop
  endfacet
  facet normal 0 0 -1
    outer loop
      vertex 82.9208 1.14127 -4
      vertex 97.6 -7.5 -4
      vertex 83.75 0 -4
    endloop
  endfacet
  facet normal -0.809017 0.587785 0
    outer loop
      vertex 1.2 0 -4
      vertex 0.37082 -1.14127 4
      vertex 1.2 0 4
    endloop
  endfacet
  facet normal -0.809017 0.587785 0
    outer loop
      vertex 1.2 0 -4
      vertex 0.37082 -1.14127 -4
      vertex 0.37082 -1.14127 4
    endloop
  endfacet
  facet normal 0.309017 0.951057 -0
    outer loop
      vertex 0.37082 -1.14127 -4
      vertex -0.97082 -0.705342 4
      vertex 0.37082 -1.14127 4
    endloop
  endfacet
  facet normal 0.309017 0.951057 0
    outer loop
      vertex 0.37082 -1.14127 -4
      vertex -0.97082 -0.705342 -4
      vertex -0.97082 -0.705342 4
    endloop
  endfacet
  facet normal 0.309017 -0.951057 0
    outer loop
      vertex -0.97082 0.705342 4
      vertex 0.37082 1.14127 -4
      vertex 0.37082 1.14127 4
    endloop
  endfacet
  facet normal 0.309017 -0.951057 0
    outer loop
      vertex -0.97082 0.705342 4
      vertex -0.97082 0.705342 -4
      vertex 0.37082 1.14127 -4
    endloop
  endfacet
  facet normal -0.809017 -0.587785 0
    outer loop
      vertex 0.37082 1.14127 -4
      vertex 1.2 0 -4
      vertex 1.2 0 4
    endloop
  endfacet
  facet normal -0.809017 -0.587785 -0
    outer loop
      vertex 0.37082 1.14127 4
      vertex 0.37082 1.14127 -4
      vertex 1.2 0 4
    endloop
  endfacet
  facet normal 1 -0 0
    outer loop
      vertex 81.5792 -0.705342 4
      vertex 81.5792 0.705342 -4
      vertex 81.5792 0.705342 4
    endloop
  endfacet
  facet normal 1 0 0
    outer loop
      vertex 81.5792 -0.705342 4
      vertex 81.5792 -0.705342 -4
      vertex 81.5792 0.705342 -4
    endloop
  endfacet
  facet normal -0.809017 0.587785 0
    outer loop
      vertex 83.75 0 -4
      vertex 82.9208 -1.14127 4
      vertex 83.75 0 4
    endloop
  endfacet
  facet normal -0.809017 0.587785 0
    outer loop
      vertex 83.75 0 -4
      vertex 82.9208 -1.14127 -4
      vertex 82.9208 -1.14127 4
    endloop
  endfacet
  facet normal 0.309017 0.951057 -0
    outer loop
      vertex 82.9208 -1.14127 -4
      vertex 81.5792 -0.705342 4
      vertex 82.9208 -1.14127 4
    endloop
  endfacet
  facet normal 0.309017 0.951057 0
    outer loop
      vertex 82.9208 -1.14127 -4
      vertex 81.5792 -0.705342 -4
      vertex 81.5792 -0.705342 4
    endloop
  endfacet
  facet normal 0.309017 -0.951057 0
    outer loop
      vertex 81.5792 0.705342 4
      vertex 82.9208 1.14127 -4
      vertex 82.9208 1.14127 4
    endloop
  endfacet
  facet normal 0.309017 -0.951057 0
    outer loop
      vertex 81.5792 0.705342 4
      vertex 81.5792 0.705342 -4
      vertex 82.9208 1.14127 -4
    endloop
  endfacet
  facet normal -0.809017 -0.587785 0
    outer loop
      vertex 82.9208 1.14127 -4
      vertex 83.75 0 -4
      vertex 83.75 0 4
    endloop
  endfacet
  facet normal -0.809017 -0.587785 -0
    outer loop
      vertex 82.9208 1.14127 4
      vertex 82.9208 1.14127 -4
      vertex 83.75 0 4
    endloop
  endfacet
  facet normal 1 -2.36103e-16 0
    outer loop
      vertex 0.32918 47.4947 4
      vertex 0.32918 48.9053 -4
      vertex 0.32918 48.9053 4
    endloop
  endfacet
  facet normal 1 -2.36103e-16 0
    outer loop
      vertex 0.32918 47.4947 4
      vertex 0.32918 47.4947 -4
      vertex 0.32918 48.9053 -4
    endloop
  endfacet
  facet normal -0.809017 0.587785 0
    outer loop
      vertex 2.5 48.2 -4
      vertex 1.67082 47.0587 4
      vertex 2.5 48.2 4
    endloop
  endfacet
  facet normal -0.809017 0.587785 0
    outer loop
      vertex 2.5 48.2 -4
      vertex 1.67082 47.0587 -4
      vertex 1.67082 47.0587 4
    endloop
  endfacet
  facet normal 0.309017 0.951057 -0
    outer loop
      vertex 1.67082 47.0587 -4
      vertex 0.32918 47.4947 4
      vertex 1.67082 47.0587 4
    endloop
  endfacet
  facet normal 0.309017 0.951057 0
    outer loop
      vertex 1.67082 47.0587 -4
      vertex 0.32918 47.4947 -4
      vertex 0.32918 47.4947 4
    endloop
  endfacet
  facet normal 0.309017 -0.951057 0
    outer loop
      vertex 0.32918 48.9053 4
      vertex 1.67082 49.3413 -4
      vertex 1.67082 49.3413 4
    endloop
  endfacet
  facet normal 0.309017 -0.951057 0
    outer loop
      vertex 0.32918 48.9053 4
      vertex 0.32918 48.9053 -4
      vertex 1.67082 49.3413 -4
    endloop
  endfacet
  facet normal -0.809017 -0.587785 0
    outer loop
      vertex 1.67082 49.3413 -4
      vertex 2.5 48.2 -4
      vertex 2.5 48.2 4
    endloop
  endfacet
  facet normal -0.809017 -0.587785 -0
    outer loop
      vertex 1.67082 49.3413 4
      vertex 1.67082 49.3413 -4
      vertex 2.5 48.2 4
    endloop
  endfacet
  facet normal 1 -0 0
    outer loop
      vertex 73.9292 47.4947 4
      vertex 73.9292 48.9053 -4
      vertex 73.9292 48.9053 4
    endloop
  endfacet
  facet normal 1 0 0
    outer loop
      vertex 73.9292 47.4947 4
      vertex 73.9292 47.4947 -4
      vertex 73.9292 48.9053 -4
    endloop
  endfacet
  facet normal -0.809017 0.587785 0
    outer loop
      vertex 76.1 48.2 -4
      vertex 75.2708 47.0587 4
      vertex 76.1 48.2 4
    endloop
  endfacet
  facet normal -0.809017 0.587785 0
    outer loop
      vertex 76.1 48.2 -4
      vertex 75.2708 47.0587 -4
      vertex 75.2708 47.0587 4
    endloop
  endfacet
  facet normal 0.309017 0.951057 -0
    outer loop
      vertex 75.2708 47.0587 -4
      vertex 73.9292 47.4947 4
      vertex 75.2708 47.0587 4
    endloop
  endfacet
  facet normal 0.309017 0.951057 0
    outer loop
      vertex 75.2708 47.0587 -4
      vertex 73.9292 47.4947 -4
      vertex 73.9292 47.4947 4
    endloop
  endfacet
  facet normal 0.309017 -0.951057 0
    outer loop
      vertex 73.9292 48.9053 4
      vertex 75.2708 49.3413 -4
      vertex 75.2708 49.3413 4
    endloop
  endfacet
  facet normal 0.309017 -0.951057 0
    outer loop
      vertex 73.9292 48.9053 4
      vertex 73.9292 48.9053 -4
      vertex 75.2708 49.3413 -4
    endloop
  endfacet
  facet normal -0.809017 -0.587785 0
    outer loop
      vertex 75.2708 49.3413 -4
      vertex 76.1 48.2 -4
      vertex 76.1 48.2 4
    endloop
  endfacet
  facet normal -0.809017 -0.587785 -0
    outer loop
      vertex 75.2708 49.3413 4
      vertex 75.2708 49.3413 -4
      vertex 76.1 48.2 4
    endloop
  endfacet
  facet normal -1 0 0
    outer loop
      vertex 92.6 -7.5 11
      vertex 92.6 6.07342 3.03647
      vertex 92.6 -7.5 0
    endloop
  endfacet
  facet normal -1 -0 0
    outer loop
      vertex 92.6 6.11882 3.17623
      vertex 92.6 6.07342 3.03647
      vertex 92.6 -7.5 11
    endloop
  endfacet
  facet normal -1 0 0
    outer loop
      vertex 92.6 -7.5 0
      vertex 92.6 7.5 2
      vertex 92.6 40.84 2
    endloop
  endfacet
  facet normal -1 0 -0
    outer loop
      vertex 92.6 6.07342 3.03647
      vertex 92.6 7.38112 2.08637
      vertex 92.6 -7.5 0
    endloop
  endfacet
  facet normal -1 0 -0
    outer loop
      vertex 92.6 7.38112 2.08637
      vertex 92.6 7.5 2
      vertex 92.6 -7.5 0
    endloop
  endfacet
  facet normal -1 0 -0
    outer loop
      vertex 92.6 40.84 2
      vertex 92.6 55.84 0
      vertex 92.6 -7.5 0
    endloop
  endfacet
  facet normal -1 0 0
    outer loop
      vertex 92.6 7.5 2
      vertex 92.6 7.61888 2.08637
      vertex 92.6 40.7211 2.08637
    endloop
  endfacet
  facet normal -1 -0 0
    outer loop
      vertex 92.6 39.4588 3.17623
      vertex 92.6 8.92658 3.03647
      vertex 92.6 8.42709 4.57377
    endloop
  endfacet
  facet normal -1 0 0
    outer loop
      vertex 92.6 39.4588 3.17623
      vertex 92.6 8.42709 4.57377
      vertex 92.6 39.9583 4.71353
    endloop
  endfacet
  facet normal -1 -0 0
    outer loop
      vertex 92.6 55.84 11
      vertex 92.6 8.38168 4.71353
      vertex 92.6 -7.5 11
    endloop
  endfacet
  facet normal -1 0 0
    outer loop
      vertex 92.6 8.38168 4.71353
      vertex 92.6 8.23473 4.71353
      vertex 92.6 -7.5 11
    endloop
  endfacet
  facet normal -1 0 0
    outer loop
      vertex 92.6 8.23473 4.71353
      vertex 92.6 6.61832 4.71353
      vertex 92.6 -7.5 11
    endloop
  endfacet
  facet normal -1 -0 0
    outer loop
      vertex 92.6 6.61832 4.71353
      vertex 92.6 6.11882 3.17623
      vertex 92.6 -7.5 11
    endloop
  endfacet
  facet normal -1 0 0
    outer loop
      vertex 92.6 40.7211 2.08637
      vertex 92.6 7.61888 2.08637
      vertex 92.6 8.92658 3.03647
    endloop
  endfacet
  facet normal -1 -0 0
    outer loop
      vertex 92.6 39.4134 3.03647
      vertex 92.6 8.92658 3.03647
      vertex 92.6 39.4588 3.17623
    endloop
  endfacet
  facet normal -1 0 0
    outer loop
      vertex 92.6 40.7211 2.08637
      vertex 92.6 8.92658 3.03647
      vertex 92.6 39.4134 3.03647
    endloop
  endfacet
  facet normal -1 0 0
    outer loop
      vertex 92.6 55.84 0
      vertex 92.6 42.2666 3.03647
      vertex 92.6 55.84 11
    endloop
  endfacet
  facet normal -1 0 0
    outer loop
      vertex 92.6 40.84 2
      vertex 92.6 7.5 2
      vertex 92.6 40.7211 2.08637
    endloop
  endfacet
  facet normal -1 0 0
    outer loop
      vertex 92.6 40.84 2
      vertex 92.6 40.9589 2.08637
      vertex 92.6 55.84 0
    endloop
  endfacet
  facet normal -1 0 0
    outer loop
      vertex 92.6 40.9589 2.08637
      vertex 92.6 42.2666 3.03647
      vertex 92.6 55.84 0
    endloop
  endfacet
  facet normal -1 0 0
    outer loop
      vertex 92.6 42.2666 3.03647
      vertex 92.6 41.7671 4.57377
      vertex 92.6 55.84 11
    endloop
  endfacet
  facet normal -1 0 0
    outer loop
      vertex 92.6 55.84 11
      vertex 92.6 41.7671 4.57377
      vertex 92.6 41.7217 4.71353
    endloop
  endfacet
  facet normal -1 0 0
    outer loop
      vertex 92.6 55.84 11
      vertex 92.6 41.7217 4.71353
      vertex 92.6 41.5747 4.71353
    endloop
  endfacet
  facet normal -1 0 0
    outer loop
      vertex 92.6 55.84 11
      vertex 92.6 41.5747 4.71353
      vertex 92.6 39.9583 4.71353
    endloop
  endfacet
  facet normal -1 0 0
    outer loop
      vertex 92.6 55.84 11
      vertex 92.6 39.9583 4.71353
      vertex 92.6 8.38168 4.71353
    endloop
  endfacet
  facet normal -1 -0 0
    outer loop
      vertex 92.6 39.9583 4.71353
      vertex 92.6 8.42709 4.57377
      vertex 92.6 8.38168 4.71353
    endloop
  endfacet
  facet normal -0 -1 0
    outer loop
      vertex 97.6 -7.5 11
      vertex 92.6 -7.5 11
      vertex 92.6 -7.5 0
    endloop
  endfacet
  facet normal 0 -1 -0
    outer loop
      vertex 97.6 -7.5 11
      vertex 92.6 -7.5 0
      vertex 97.6 -7.5 -4
    endloop
  endfacet
  facet normal 0 -1 0
    outer loop
      vertex 97.6 -7.5 -4
      vertex 92.6 -7.5 0
      vertex -14 -7.5 -4
    endloop
  endfacet
  facet normal -0 -1 0
    outer loop
      vertex 92.6 -7.5 0
      vertex -14 -7.5 0
      vertex -14 -7.5 -4
    endloop
  endfacet
  facet normal 0 1 0
    outer loop
      vertex 92.6 55.84 0
      vertex 97.6 55.84 -4
      vertex -14 55.84 -4
    endloop
  endfacet
  facet normal -0 1 0
    outer loop
      vertex -14 55.84 0
      vertex 92.6 55.84 0
      vertex -14 55.84 -4
    endloop
  endfacet
  facet normal 0 1 0
    outer loop
      vertex 97.6 55.84 11
      vertex 97.6 55.84 -4
      vertex 92.6 55.84 0
    endloop
  endfacet
  facet normal -0 1 0
    outer loop
      vertex 92.6 55.84 11
      vertex 97.6 55.84 11
      vertex 92.6 55.84 0
    endloop
  endfacet
  facet normal 0 0 1
    outer loop
      vertex 97.6 -7.5 11
      vertex 92.6 55.84 11
      vertex 92.6 -7.5 11
    endloop
  endfacet
  facet normal 0 -0 1
    outer loop
      vertex 97.6 -7.5 11
      vertex 97.6 55.84 11
      vertex 92.6 55.84 11
    endloop
  endfacet
  facet normal 1 0 0
    outer loop
      vertex 97.6 55.84 11
      vertex 97.6 -7.5 11
      vertex 97.6 39.9583 4.71353
    endloop
  endfacet
  facet normal 1 0 0
    outer loop
      vertex 97.6 6.07342 3.03647
      vertex 97.6 -7.5 11
      vertex 97.6 -7.5 -4
    endloop
  endfacet
  facet normal 1 0 0
    outer loop
      vertex 97.6 6.07342 3.03647
      vertex 97.6 -7.5 -4
      vertex 97.6 6.1923 2.9501
    endloop
  endfacet
  facet normal 1 0 0
    outer loop
      vertex 97.6 6.57291 4.57377
      vertex 97.6 -7.5 11
      vertex 97.6 6.07342 3.03647
    endloop
  endfacet
  facet normal 1 0 0
    outer loop
      vertex 97.6 -7.5 11
      vertex 97.6 6.61832 4.71353
      vertex 97.6 6.76527 4.71353
    endloop
  endfacet
  facet normal 1 0 0
    outer loop
      vertex 97.6 6.61832 4.71353
      vertex 97.6 -7.5 11
      vertex 97.6 6.57291 4.57377
    endloop
  endfacet
  facet normal 1 0 0
    outer loop
      vertex 97.6 -7.5 11
      vertex 97.6 6.76527 4.71353
      vertex 97.6 8.38168 4.71353
    endloop
  endfacet
  facet normal 1 0 0
    outer loop
      vertex 97.6 8.88118 3.17623
      vertex 97.6 8.92658 3.03647
      vertex 97.6 39.4134 3.03647
    endloop
  endfacet
  facet normal 1 -0 0
    outer loop
      vertex 97.6 8.92658 3.03647
      vertex 97.6 39.5323 2.9501
      vertex 97.6 39.4134 3.03647
    endloop
  endfacet
  facet normal 1 0 -0
    outer loop
      vertex 97.6 8.88118 3.17623
      vertex 97.6 39.9129 4.57377
      vertex 97.6 8.38168 4.71353
    endloop
  endfacet
  facet normal 1 0 0
    outer loop
      vertex 97.6 8.92658 3.03647
      vertex 97.6 8.8077 2.9501
      vertex 97.6 39.5323 2.9501
    endloop
  endfacet
  facet normal 1 0 0
    outer loop
      vertex 97.6 6.1923 2.9501
      vertex 97.6 -7.5 -4
      vertex 97.6 7.5 2
    endloop
  endfacet
  facet normal 1 -0 0
    outer loop
      vertex 97.6 8.8077 2.9501
      vertex 97.6 40.84 2
      vertex 97.6 39.5323 2.9501
    endloop
  endfacet
  facet normal 1 0 0
    outer loop
      vertex 97.6 7.5 2
      vertex 97.6 -7.5 -4
      vertex 97.6 55.84 -4
    endloop
  endfacet
  facet normal 1 0 0
    outer loop
      vertex 97.6 8.8077 2.9501
      vertex 97.6 7.5 2
      vertex 97.6 40.84 2
    endloop
  endfacet
  facet normal 1 -0 0
    outer loop
      vertex 97.6 8.88118 3.17623
      vertex 97.6 39.4134 3.03647
      vertex 97.6 39.9129 4.57377
    endloop
  endfacet
  facet normal 1 -0 0
    outer loop
      vertex 97.6 8.38168 4.71353
      vertex 97.6 39.9129 4.57377
      vertex 97.6 39.9583 4.71353
    endloop
  endfacet
  facet normal 1 0 -0
    outer loop
      vertex 97.6 8.38168 4.71353
      vertex 97.6 39.9583 4.71353
      vertex 97.6 -7.5 11
    endloop
  endfacet
  facet normal 1 0 0
    outer loop
      vertex 97.6 39.9583 4.71353
      vertex 97.6 40.1053 4.71353
      vertex 97.6 55.84 11
    endloop
  endfacet
  facet normal 1 -0 0
    outer loop
      vertex 97.6 40.84 2
      vertex 97.6 55.84 -4
      vertex 97.6 42.1477 2.9501
    endloop
  endfacet
  facet normal 1 -0 0
    outer loop
      vertex 97.6 40.1053 4.71353
      vertex 97.6 41.7217 4.71353
      vertex 97.6 55.84 11
    endloop
  endfacet
  facet normal 1 -0 0
    outer loop
      vertex 97.6 42.2666 3.03647
      vertex 97.6 55.84 -4
      vertex 97.6 55.84 11
    endloop
  endfacet
  facet normal 1 0 -0
    outer loop
      vertex 97.6 42.2212 3.17623
      vertex 97.6 55.84 11
      vertex 97.6 41.7217 4.71353
    endloop
  endfacet
  facet normal 1 0 -0
    outer loop
      vertex 97.6 42.2666 3.03647
      vertex 97.6 55.84 11
      vertex 97.6 42.2212 3.17623
    endloop
  endfacet
  facet normal 1 -0 0
    outer loop
      vertex 97.6 42.1477 2.9501
      vertex 97.6 55.84 -4
      vertex 97.6 42.2666 3.03647
    endloop
  endfacet
  facet normal 1 0 0
    outer loop
      vertex 97.6 40.84 2
      vertex 97.6 7.5 2
      vertex 97.6 55.84 -4
    endloop
  endfacet
  facet normal 1.77636e-16 0 -1
    outer loop
      vertex 92.6 6.61832 4.71353
      vertex 92.6 8.23473 4.71353
      vertex 97.6 6.76527 4.71353
    endloop
  endfacet
  facet normal 1.77636e-16 0 -1
    outer loop
      vertex 97.6 6.61832 4.71353
      vertex 92.6 6.61832 4.71353
      vertex 97.6 6.76527 4.71353
    endloop
  endfacet
  facet normal 0 0 -1
    outer loop
      vertex 92.6 8.23473 4.71353
      vertex 92.6 8.38168 4.71353
      vertex 97.6 8.38168 4.71353
    endloop
  endfacet
  facet normal 1.61487e-17 -5.49476e-16 -1
    outer loop
      vertex 97.6 6.76527 4.71353
      vertex 92.6 8.23473 4.71353
      vertex 97.6 8.38168 4.71353
    endloop
  endfacet
  facet normal 5.43037e-17 0.951057 -0.309017
    outer loop
      vertex 97.6 6.57291 4.57377
      vertex 92.6 6.61832 4.71353
      vertex 97.6 6.61832 4.71353
    endloop
  endfacet
  facet normal 1.47672e-16 0.951057 -0.309017
    outer loop
      vertex 97.6 6.57291 4.57377
      vertex 92.6 6.11882 3.17623
      vertex 92.6 6.61832 4.71353
    endloop
  endfacet
  facet normal -2.15565e-16 -0.587785 0.809017
    outer loop
      vertex 92.6 8.92658 3.03647
      vertex 97.6 8.8077 2.9501
      vertex 97.6 8.92658 3.03647
    endloop
  endfacet
  facet normal -3.94936e-16 -0.587785 0.809017
    outer loop
      vertex 92.6 8.92658 3.03647
      vertex 92.6 7.61888 2.08637
      vertex 97.6 8.8077 2.9501
    endloop
  endfacet
  facet normal 8.26361e-17 -0.951057 -0.309017
    outer loop
      vertex 97.6 8.88118 3.17623
      vertex 92.6 8.92658 3.03647
      vertex 97.6 8.92658 3.03647
    endloop
  endfacet
  facet normal -1.51106e-16 -0.951057 -0.309017
    outer loop
      vertex 97.6 8.88118 3.17623
      vertex 92.6 8.42709 4.57377
      vertex 92.6 8.92658 3.03647
    endloop
  endfacet
  facet normal 1.06461e-16 -0.951057 -0.309017
    outer loop
      vertex 97.6 8.38168 4.71353
      vertex 92.6 8.42709 4.57377
      vertex 97.6 8.88118 3.17623
    endloop
  endfacet
  facet normal -0 -0.951057 -0.309017
    outer loop
      vertex 97.6 8.38168 4.71353
      vertex 92.6 8.38168 4.71353
      vertex 92.6 8.42709 4.57377
    endloop
  endfacet
  facet normal -3.26251e-17 0.951057 -0.309017
    outer loop
      vertex 97.6 6.07342 3.03647
      vertex 92.6 6.11882 3.17623
      vertex 97.6 6.57291 4.57377
    endloop
  endfacet
  facet normal 2.74462e-17 0.951057 -0.309017
    outer loop
      vertex 97.6 6.07342 3.03647
      vertex 92.6 6.07342 3.03647
      vertex 92.6 6.11882 3.17623
    endloop
  endfacet
  facet normal -7.18551e-17 0.587785 0.809017
    outer loop
      vertex 92.6 6.07342 3.03647
      vertex 97.6 6.07342 3.03647
      vertex 97.6 6.1923 2.9501
    endloop
  endfacet
  facet normal -8.24214e-17 0.587785 0.809017
    outer loop
      vertex 92.6 7.38112 2.08637
      vertex 92.6 6.07342 3.03647
      vertex 97.6 6.1923 2.9501
    endloop
  endfacet
  facet normal -2.61001e-16 0.587785 0.809017
    outer loop
      vertex 92.6 7.38112 2.08637
      vertex 97.6 6.1923 2.9501
      vertex 97.6 7.5 2
    endloop
  endfacet
  facet normal -2.15565e-16 0.587785 0.809017
    outer loop
      vertex 92.6 7.5 2
      vertex 92.6 7.38112 2.08637
      vertex 97.6 7.5 2
    endloop
  endfacet
  facet normal -1.75146e-16 -0.587785 0.809017
    outer loop
      vertex 92.6 7.61888 2.08637
      vertex 97.6 7.5 2
      vertex 97.6 8.8077 2.9501
    endloop
  endfacet
  facet normal -2.17215e-16 -0.587785 0.809017
    outer loop
      vertex 92.6 7.61888 2.08637
      vertex 92.6 7.5 2
      vertex 97.6 7.5 2
    endloop
  endfacet
  facet normal 1.77636e-16 0 -1
    outer loop
      vertex 92.6 39.9583 4.71353
      vertex 92.6 41.5747 4.71353
      vertex 97.6 40.1053 4.71353
    endloop
  endfacet
  facet normal 1.77636e-16 0 -1
    outer loop
      vertex 97.6 39.9583 4.71353
      vertex 92.6 39.9583 4.71353
      vertex 97.6 40.1053 4.71353
    endloop
  endfacet
  facet normal 0 0 -1
    outer loop
      vertex 92.6 41.5747 4.71353
      vertex 92.6 41.7217 4.71353
      vertex 97.6 41.7217 4.71353
    endloop
  endfacet
  facet normal 1.61487e-17 -5.49476e-16 -1
    outer loop
      vertex 97.6 40.1053 4.71353
      vertex 92.6 41.5747 4.71353
      vertex 97.6 41.7217 4.71353
    endloop
  endfacet
  facet normal 5.43037e-17 0.951057 -0.309017
    outer loop
      vertex 97.6 39.9129 4.57377
      vertex 92.6 39.9583 4.71353
      vertex 97.6 39.9583 4.71353
    endloop
  endfacet
  facet normal 9.30675e-16 0.951057 -0.309017
    outer loop
      vertex 97.6 39.9129 4.57377
      vertex 92.6 39.4588 3.17623
      vertex 92.6 39.9583 4.71353
    endloop
  endfacet
  facet normal -2.15565e-16 -0.587785 0.809017
    outer loop
      vertex 92.6 42.2666 3.03647
      vertex 97.6 42.1477 2.9501
      vertex 97.6 42.2666 3.03647
    endloop
  endfacet
  facet normal -5.75233e-16 -0.587785 0.809017
    outer loop
      vertex 92.6 42.2666 3.03647
      vertex 92.6 40.9589 2.08637
      vertex 97.6 42.1477 2.9501
    endloop
  endfacet
  facet normal 8.26361e-17 -0.951057 -0.309017
    outer loop
      vertex 97.6 42.2212 3.17623
      vertex 92.6 42.2666 3.03647
      vertex 97.6 42.2666 3.03647
    endloop
  endfacet
  facet normal -7.64115e-16 -0.951057 -0.309017
    outer loop
      vertex 97.6 42.2212 3.17623
      vertex 92.6 41.7671 4.57377
      vertex 92.6 42.2666 3.03647
    endloop
  endfacet
  facet normal 4.13824e-16 -0.951057 -0.309017
    outer loop
      vertex 97.6 41.7217 4.71353
      vertex 92.6 41.7671 4.57377
      vertex 97.6 42.2212 3.17623
    endloop
  endfacet
  facet normal -0 -0.951057 -0.309017
    outer loop
      vertex 97.6 41.7217 4.71353
      vertex 92.6 41.7217 4.71353
      vertex 92.6 41.7671 4.57377
    endloop
  endfacet
  facet normal -3.24534e-16 0.951057 -0.309017
    outer loop
      vertex 97.6 39.4134 3.03647
      vertex 92.6 39.4588 3.17623
      vertex 97.6 39.9129 4.57377
    endloop
  endfacet
  facet normal 2.74462e-17 0.951057 -0.309017
    outer loop
      vertex 97.6 39.4134 3.03647
      vertex 92.6 39.4134 3.03647
      vertex 92.6 39.4588 3.17623
    endloop
  endfacet
  facet normal -7.18551e-17 0.587785 0.809017
    outer loop
      vertex 92.6 39.4134 3.03647
      vertex 97.6 39.4134 3.03647
      vertex 97.6 39.5323 2.9501
    endloop
  endfacet
  facet normal 3.02212e-16 0.587785 0.809017
    outer loop
      vertex 92.6 40.7211 2.08637
      vertex 92.6 39.4134 3.03647
      vertex 97.6 39.5323 2.9501
    endloop
  endfacet
  facet normal -6.40483e-16 0.587785 0.809017
    outer loop
      vertex 92.6 40.7211 2.08637
      vertex 97.6 39.5323 2.9501
      vertex 97.6 40.84 2
    endloop
  endfacet
  facet normal -2.15565e-16 0.587785 0.809017
    outer loop
      vertex 92.6 40.84 2
      vertex 92.6 40.7211 2.08637
      vertex 97.6 40.84 2
    endloop
  endfacet
  facet normal 1.18481e-16 -0.587785 0.809017
    outer loop
      vertex 92.6 40.9589 2.08637
      vertex 97.6 40.84 2
      vertex 97.6 42.1477 2.9501
    endloop
  endfacet
  facet normal -2.14854e-16 -0.587785 0.809017
    outer loop
      vertex 92.6 40.9589 2.08637
      vertex 92.6 40.84 2
      vertex 97.6 40.84 2
    endloop
  endfacet
  facet normal -1 0 0
    outer loop
      vertex -14 -7.5 0
      vertex -14 55.84 -4
      vertex -14 -7.5 -4
    endloop
  endfacet
  facet normal -1 0 0
    outer loop
      vertex -14 -7.5 0
      vertex -14 55.84 0
      vertex -14 55.84 -4
    endloop
  endfacet
  facet normal 1 -0 0
    outer loop
      vertex -6 15.5 0
      vertex -6 32.84 -4
      vertex -6 32.84 0
    endloop
  endfacet
  facet normal 1 0 0
    outer loop
      vertex -6 15.5 0
      vertex -6 15.5 -4
      vertex -6 32.84 -4
    endloop
  endfacet
  facet normal -0.951057 -0.309017 0
    outer loop
      vertex 78.7355 36.9074 -4
      vertex 79.3815 34.9191 -4
      vertex 79.3815 34.9191 0
    endloop
  endfacet
  facet normal -0.951057 -0.309017 -0
    outer loop
      vertex 78.7355 36.9074 0
      vertex 78.7355 36.9074 -4
      vertex 79.3815 34.9191 0
    endloop
  endfacet
  facet normal 0.207912 0.978148 -0
    outer loop
      vertex 2.95472 5.55478 -4
      vertex 0.90983 5.98943 0
      vertex 2.95472 5.55478 0
    endloop
  endfacet
  facet normal 0.207912 0.978148 0
    outer loop
      vertex 2.95472 5.55478 -4
      vertex 0.90983 5.98943 -4
      vertex 0.90983 5.98943 0
    endloop
  endfacet
  facet normal 0 1 -0
    outer loop
      vertex 70.6453 5.55478 -4
      vertex 2.95472 5.55478 0
      vertex 70.6453 5.55478 0
    endloop
  endfacet
  facet normal 0 1 0
    outer loop
      vertex 70.6453 5.55478 -4
      vertex 2.95472 5.55478 -4
      vertex 2.95472 5.55478 0
    endloop
  endfacet
  facet normal 0.994522 0.104528 -0
    outer loop
      vertex -6 15.5 -4
      vertex -6 15.5 0
      vertex -5.78148 13.4209 0
    endloop
  endfacet
  facet normal 0.994522 0.104528 -0
    outer loop
      vertex -5.78148 13.4209 -4
      vertex -6 15.5 -4
      vertex -5.78148 13.4209 0
    endloop
  endfacet
  facet normal 0.994522 -0.104528 0
    outer loop
      vertex -6 32.84 0
      vertex -5.78148 34.9191 -4
      vertex -5.78148 34.9191 0
    endloop
  endfacet
  facet normal 0.994522 -0.104528 0
    outer loop
      vertex -6 32.84 0
      vertex -6 32.84 -4
      vertex -5.78148 34.9191 -4
    endloop
  endfacet
  facet normal -0.207912 0.978148 0
    outer loop
      vertex 72.6902 5.98943 -4
      vertex 70.6453 5.55478 0
      vertex 72.6902 5.98943 0
    endloop
  endfacet
  facet normal -0.207912 0.978148 0
    outer loop
      vertex 72.6902 5.98943 -4
      vertex 70.6453 5.55478 -4
      vertex 70.6453 5.55478 0
    endloop
  endfacet
  facet normal -0.743145 -0.669131 0
    outer loop
      vertex 76.2913 40.2714 -4
      vertex 77.6902 38.7179 -4
      vertex 77.6902 38.7179 0
    endloop
  endfacet
  facet normal -0.743145 -0.669131 -0
    outer loop
      vertex 76.2913 40.2714 0
      vertex 76.2913 40.2714 -4
      vertex 77.6902 38.7179 0
    endloop
  endfacet
  facet normal -1 0 0
    outer loop
      vertex 79.6 32.84 -4
      vertex 79.6 15.5 0
      vertex 79.6 32.84 0
    endloop
  endfacet
  facet normal -1 0 0
    outer loop
      vertex 79.6 32.84 -4
      vertex 79.6 15.5 -4
      vertex 79.6 15.5 0
    endloop
  endfacet
  facet normal 0 -1 0
    outer loop
      vertex 2.95472 42.7852 0
      vertex 70.6453 42.7852 -4
      vertex 70.6453 42.7852 0
    endloop
  endfacet
  facet normal 0 -1 0
    outer loop
      vertex 2.95472 42.7852 0
      vertex 2.95472 42.7852 -4
      vertex 70.6453 42.7852 -4
    endloop
  endfacet
  facet normal 0.951057 0.309017 -0
    outer loop
      vertex -5.78148 13.4209 -4
      vertex -5.78148 13.4209 0
      vertex -5.13545 11.4326 0
    endloop
  endfacet
  facet normal 0.951057 0.309017 -0
    outer loop
      vertex -5.13545 11.4326 -4
      vertex -5.78148 13.4209 -4
      vertex -5.13545 11.4326 0
    endloop
  endfacet
  facet normal 0.406737 0.913545 -0
    outer loop
      vertex 0.90983 5.98943 -4
      vertex -1 6.83975 0
      vertex 0.90983 5.98943 0
    endloop
  endfacet
  facet normal 0.406737 0.913545 0
    outer loop
      vertex 0.90983 5.98943 -4
      vertex -1 6.83975 -4
      vertex -1 6.83975 0
    endloop
  endfacet
  facet normal 0.743145 0.669131 -0
    outer loop
      vertex -4.09017 9.62215 -4
      vertex -4.09017 9.62215 0
      vertex -2.69131 8.06855 0
    endloop
  endfacet
  facet normal 0.743145 0.669131 -0
    outer loop
      vertex -2.69131 8.06855 -4
      vertex -4.09017 9.62215 -4
      vertex -2.69131 8.06855 0
    endloop
  endfacet
  facet normal -0.994522 0.104528 0
    outer loop
      vertex 79.6 15.5 -4
      vertex 79.3815 13.4209 0
      vertex 79.6 15.5 0
    endloop
  endfacet
  facet normal -0.994522 0.104528 0
    outer loop
      vertex 79.6 15.5 -4
      vertex 79.3815 13.4209 -4
      vertex 79.3815 13.4209 0
    endloop
  endfacet
  facet normal -0.587785 0.809017 0
    outer loop
      vertex 76.2913 8.06855 -4
      vertex 74.6 6.83975 0
      vertex 76.2913 8.06855 0
    endloop
  endfacet
  facet normal -0.587785 0.809017 0
    outer loop
      vertex 76.2913 8.06855 -4
      vertex 74.6 6.83975 -4
      vertex 74.6 6.83975 0
    endloop
  endfacet
  facet normal -0.207912 -0.978148 0
    outer loop
      vertex 70.6453 42.7852 0
      vertex 72.6902 42.3506 -4
      vertex 72.6902 42.3506 0
    endloop
  endfacet
  facet normal -0.207912 -0.978148 -0
    outer loop
      vertex 70.6453 42.7852 0
      vertex 70.6453 42.7852 -4
      vertex 72.6902 42.3506 -4
    endloop
  endfacet
  facet normal -0.866025 -0.5 0
    outer loop
      vertex 77.6902 38.7179 -4
      vertex 78.7355 36.9074 -4
      vertex 78.7355 36.9074 0
    endloop
  endfacet
  facet normal -0.866025 -0.5 -0
    outer loop
      vertex 77.6902 38.7179 0
      vertex 77.6902 38.7179 -4
      vertex 78.7355 36.9074 0
    endloop
  endfacet
  facet normal -0.406737 -0.913545 0
    outer loop
      vertex 72.6902 42.3506 0
      vertex 74.6 41.5003 -4
      vertex 74.6 41.5003 0
    endloop
  endfacet
  facet normal -0.406737 -0.913545 -0
    outer loop
      vertex 72.6902 42.3506 0
      vertex 72.6902 42.3506 -4
      vertex 74.6 41.5003 -4
    endloop
  endfacet
  facet normal -0.994522 -0.104528 0
    outer loop
      vertex 79.3815 34.9191 -4
      vertex 79.6 32.84 -4
      vertex 79.6 32.84 0
    endloop
  endfacet
  facet normal -0.994522 -0.104528 -0
    outer loop
      vertex 79.3815 34.9191 0
      vertex 79.3815 34.9191 -4
      vertex 79.6 32.84 0
    endloop
  endfacet
  facet normal 0.743145 -0.669131 0
    outer loop
      vertex -4.09017 38.7179 0
      vertex -2.69131 40.2714 -4
      vertex -2.69131 40.2714 0
    endloop
  endfacet
  facet normal 0.743145 -0.669131 0
    outer loop
      vertex -4.09017 38.7179 0
      vertex -4.09017 38.7179 -4
      vertex -2.69131 40.2714 -4
    endloop
  endfacet
  facet normal 0.587785 -0.809017 0
    outer loop
      vertex -2.69131 40.2714 0
      vertex -1 41.5003 -4
      vertex -1 41.5003 0
    endloop
  endfacet
  facet normal 0.587785 -0.809017 0
    outer loop
      vertex -2.69131 40.2714 0
      vertex -2.69131 40.2714 -4
      vertex -1 41.5003 -4
    endloop
  endfacet
  facet normal 0.866025 0.5 -0
    outer loop
      vertex -5.13545 11.4326 -4
      vertex -5.13545 11.4326 0
      vertex -4.09017 9.62215 0
    endloop
  endfacet
  facet normal 0.866025 0.5 -0
    outer loop
      vertex -4.09017 9.62215 -4
      vertex -5.13545 11.4326 -4
      vertex -4.09017 9.62215 0
    endloop
  endfacet
  facet normal 0.587785 0.809017 -0
    outer loop
      vertex -1 6.83975 -4
      vertex -2.69131 8.06855 0
      vertex -1 6.83975 0
    endloop
  endfacet
  facet normal 0.587785 0.809017 0
    outer loop
      vertex -1 6.83975 -4
      vertex -2.69131 8.06855 -4
      vertex -2.69131 8.06855 0
    endloop
  endfacet
  facet normal -0.866025 0.5 0
    outer loop
      vertex 78.7355 11.4326 -4
      vertex 77.6902 9.62215 0
      vertex 78.7355 11.4326 0
    endloop
  endfacet
  facet normal -0.866025 0.5 0
    outer loop
      vertex 78.7355 11.4326 -4
      vertex 77.6902 9.62215 -4
      vertex 77.6902 9.62215 0
    endloop
  endfacet
  facet normal -0.743145 0.669131 0
    outer loop
      vertex 77.6902 9.62215 -4
      vertex 76.2913 8.06855 0
      vertex 77.6902 9.62215 0
    endloop
  endfacet
  facet normal -0.743145 0.669131 0
    outer loop
      vertex 77.6902 9.62215 -4
      vertex 76.2913 8.06855 -4
      vertex 76.2913 8.06855 0
    endloop
  endfacet
  facet normal -0.951057 0.309017 0
    outer loop
      vertex 79.3815 13.4209 -4
      vertex 78.7355 11.4326 0
      vertex 79.3815 13.4209 0
    endloop
  endfacet
  facet normal -0.951057 0.309017 0
    outer loop
      vertex 79.3815 13.4209 -4
      vertex 78.7355 11.4326 -4
      vertex 78.7355 11.4326 0
    endloop
  endfacet
  facet normal -0.406737 0.913545 0
    outer loop
      vertex 74.6 6.83975 -4
      vertex 72.6902 5.98943 0
      vertex 74.6 6.83975 0
    endloop
  endfacet
  facet normal -0.406737 0.913545 0
    outer loop
      vertex 74.6 6.83975 -4
      vertex 72.6902 5.98943 -4
      vertex 72.6902 5.98943 0
    endloop
  endfacet
  facet normal -0.587785 -0.809017 0
    outer loop
      vertex 74.6 41.5003 0
      vertex 76.2913 40.2714 -4
      vertex 76.2913 40.2714 0
    endloop
  endfacet
  facet normal -0.587785 -0.809017 -0
    outer loop
      vertex 74.6 41.5003 0
      vertex 74.6 41.5003 -4
      vertex 76.2913 40.2714 -4
    endloop
  endfacet
  facet normal 0.951057 -0.309017 0
    outer loop
      vertex -5.78148 34.9191 0
      vertex -5.13545 36.9074 -4
      vertex -5.13545 36.9074 0
    endloop
  endfacet
  facet normal 0.951057 -0.309017 0
    outer loop
      vertex -5.78148 34.9191 0
      vertex -5.78148 34.9191 -4
      vertex -5.13545 36.9074 -4
    endloop
  endfacet
  facet normal 0.866025 -0.5 0
    outer loop
      vertex -5.13545 36.9074 0
      vertex -4.09017 38.7179 -4
      vertex -4.09017 38.7179 0
    endloop
  endfacet
  facet normal 0.866025 -0.5 0
    outer loop
      vertex -5.13545 36.9074 0
      vertex -5.13545 36.9074 -4
      vertex -4.09017 38.7179 -4
    endloop
  endfacet
  facet normal 0.207912 -0.978148 0
    outer loop
      vertex 0.90983 42.3506 0
      vertex 2.95472 42.7852 -4
      vertex 2.95472 42.7852 0
    endloop
  endfacet
  facet normal 0.207912 -0.978148 0
    outer loop
      vertex 0.90983 42.3506 0
      vertex 0.90983 42.3506 -4
      vertex 2.95472 42.7852 -4
    endloop
  endfacet
  facet normal 0.406737 -0.913545 0
    outer loop
      vertex -1 41.5003 0
      vertex 0.90983 42.3506 -4
      vertex 0.90983 42.3506 0
    endloop
  endfacet
  facet normal 0.406737 -0.913545 0
    outer loop
      vertex -1 41.5003 0
      vertex -1 41.5003 -4
      vertex 0.90983 42.3506 -4
    endloop
  endfacet
endsolid OpenSCAD_Model
