solid OpenSCAD_Model
  facet normal -1 0 0
    outer loop
      vertex 0 -5 0
      vertex 0 58.34 -4
      vertex 0 -5 -4
    endloop
  endfacet
  facet normal -1 0 0
    outer loop
      vertex 0 -5 0
      vertex 0 58.34 0
      vertex 0 58.34 -4
    endloop
  endfacet
  facet normal -0 -1 0
    outer loop
      vertex 111.6 -5 11
      vertex 106.6 -5 11
      vertex 106.6 -5 0
    endloop
  endfacet
  facet normal 0 -1 -0
    outer loop
      vertex 111.6 -5 11
      vertex 106.6 -5 0
      vertex 111.6 -5 -4
    endloop
  endfacet
  facet normal 0 -1 0
    outer loop
      vertex 111.6 -5 -4
      vertex 106.6 -5 0
      vertex 0 -5 -4
    endloop
  endfacet
  facet normal -0 -1 0
    outer loop
      vertex 106.6 -5 0
      vertex 0 -5 0
      vertex 0 -5 -4
    endloop
  endfacet
  facet normal 0 0 -1
    outer loop
      vertex 0 58.34 -4
      vertex 8 13 -4
      vertex 0 -5 -4
    endloop
  endfacet
  facet normal -0 -0 -1
    outer loop
      vertex 8 40.34 -4
      vertex 8 13 -4
      vertex 0 58.34 -4
    endloop
  endfacet
  facet normal 0 -0 -1
    outer loop
      vertex 8 13 -4
      vertex 8.3806 11.0866 -4
      vertex 0 -5 -4
    endloop
  endfacet
  facet normal 0 -0 -1
    outer loop
      vertex 8.3806 11.0866 -4
      vertex 9.46447 9.46447 -4
      vertex 0 -5 -4
    endloop
  endfacet
  facet normal 0 -0 -1
    outer loop
      vertex 9.46447 9.46447 -4
      vertex 13.0292 1.79466 -4
      vertex 0 -5 -4
    endloop
  endfacet
  facet normal 0 -0 -1
    outer loop
      vertex 111.6 58.34 -4
      vertex 111.6 -5 -4
      vertex 93.6 40.34 -4
    endloop
  endfacet
  facet normal -0 -0 -1
    outer loop
      vertex 11.0866 8.3806 -4
      vertex 13.0292 3.20534 -4
      vertex 9.46447 9.46447 -4
    endloop
  endfacet
  facet normal 0 0 -1
    outer loop
      vertex 111.6 -5 -4
      vertex 0 -5 -4
      vertex 95.5792 1.79466 -4
    endloop
  endfacet
  facet normal 0 -0 -1
    outer loop
      vertex 90.5134 8.3806 -4
      vertex 95.5792 3.20534 -4
      vertex 88.6 8 -4
    endloop
  endfacet
  facet normal 0 -0 -1
    outer loop
      vertex 92.1355 9.46447 -4
      vertex 95.5792 3.20534 -4
      vertex 90.5134 8.3806 -4
    endloop
  endfacet
  facet normal 0 0 -1
    outer loop
      vertex 92.1355 9.46447 -4
      vertex 93.2194 11.0866 -4
      vertex 96.9208 3.64127 -4
    endloop
  endfacet
  facet normal -0 0 -1
    outer loop
      vertex 96.9208 3.64127 -4
      vertex 95.5792 3.20534 -4
      vertex 92.1355 9.46447 -4
    endloop
  endfacet
  facet normal 0 0 -1
    outer loop
      vertex 111.6 -5 -4
      vertex 93.6 13 -4
      vertex 93.6 40.34 -4
    endloop
  endfacet
  facet normal 0 0 -1
    outer loop
      vertex 111.6 58.34 -4
      vertex 93.6 40.34 -4
      vertex 93.2194 42.2534 -4
    endloop
  endfacet
  facet normal 0 0 -1
    outer loop
      vertex 111.6 58.34 -4
      vertex 93.2194 42.2534 -4
      vertex 92.1355 43.8755 -4
    endloop
  endfacet
  facet normal 0 0 -1
    outer loop
      vertex 111.6 58.34 -4
      vertex 92.1355 43.8755 -4
      vertex 90.1 50.7 -4
    endloop
  endfacet
  facet normal 0 0 -1
    outer loop
      vertex 92.1355 43.8755 -4
      vertex 90.5134 44.9594 -4
      vertex 90.1 50.7 -4
    endloop
  endfacet
  facet normal 0 0 -1
    outer loop
      vertex 88.6 45.34 -4
      vertex 13 45.34 -4
      vertex 15.6708 49.5587 -4
    endloop
  endfacet
  facet normal -0 0 -1
    outer loop
      vertex 13 45.34 -4
      vertex 11.0866 44.9594 -4
      vertex 14.3292 49.9947 -4
    endloop
  endfacet
  facet normal -0 0 -1
    outer loop
      vertex 11.0866 44.9594 -4
      vertex 9.46447 43.8755 -4
      vertex 0 58.34 -4
    endloop
  endfacet
  facet normal -0 0 -1
    outer loop
      vertex 9.46447 43.8755 -4
      vertex 8.3806 42.2534 -4
      vertex 0 58.34 -4
    endloop
  endfacet
  facet normal -0 0 -1
    outer loop
      vertex 8.3806 42.2534 -4
      vertex 8 40.34 -4
      vertex 0 58.34 -4
    endloop
  endfacet
  facet normal 0 0 -1
    outer loop
      vertex 13.0292 3.20534 -4
      vertex 11.0866 8.3806 -4
      vertex 13 8 -4
    endloop
  endfacet
  facet normal 0 0 -1
    outer loop
      vertex 13.0292 3.20534 -4
      vertex 13 8 -4
      vertex 14.3708 3.64127 -4
    endloop
  endfacet
  facet normal 0 0 -1
    outer loop
      vertex 13.0292 1.79466 -4
      vertex 9.46447 9.46447 -4
      vertex 13.0292 3.20534 -4
    endloop
  endfacet
  facet normal 0 0 -1
    outer loop
      vertex 0 -5 -4
      vertex 14.3708 1.35873 -4
      vertex 95.5792 1.79466 -4
    endloop
  endfacet
  facet normal -0 0 -1
    outer loop
      vertex 14.3708 1.35873 -4
      vertex 0 -5 -4
      vertex 13.0292 1.79466 -4
    endloop
  endfacet
  facet normal 0 0 -1
    outer loop
      vertex 14.3708 1.35873 -4
      vertex 15.2 2.5 -4
      vertex 88.6 8 -4
    endloop
  endfacet
  facet normal 0 0 -1
    outer loop
      vertex 15.2 2.5 -4
      vertex 13 8 -4
      vertex 88.6 8 -4
    endloop
  endfacet
  facet normal 0 0 -1
    outer loop
      vertex 14.3708 3.64127 -4
      vertex 13 8 -4
      vertex 15.2 2.5 -4
    endloop
  endfacet
  facet normal 0 0 -1
    outer loop
      vertex 14.3292 51.4053 -4
      vertex 0 58.34 -4
      vertex 15.6708 51.8413 -4
    endloop
  endfacet
  facet normal -0 0 -1
    outer loop
      vertex 14.3292 51.4053 -4
      vertex 11.0866 44.9594 -4
      vertex 0 58.34 -4
    endloop
  endfacet
  facet normal -0 0 -1
    outer loop
      vertex 14.3292 49.9947 -4
      vertex 11.0866 44.9594 -4
      vertex 14.3292 51.4053 -4
    endloop
  endfacet
  facet normal 0 0 -1
    outer loop
      vertex 88.6 45.34 -4
      vertex 15.6708 49.5587 -4
      vertex 16.5 50.7 -4
    endloop
  endfacet
  facet normal -0 0 -1
    outer loop
      vertex 15.6708 49.5587 -4
      vertex 13 45.34 -4
      vertex 14.3292 49.9947 -4
    endloop
  endfacet
  facet normal 0 0 -1
    outer loop
      vertex 16.5 50.7 -4
      vertex 15.6708 51.8413 -4
      vertex 87.9292 51.4053 -4
    endloop
  endfacet
  facet normal 0 0 -1
    outer loop
      vertex 16.5 50.7 -4
      vertex 87.9292 51.4053 -4
      vertex 87.9292 49.9947 -4
    endloop
  endfacet
  facet normal 0 0 -1
    outer loop
      vertex 15.6708 51.8413 -4
      vertex 0 58.34 -4
      vertex 87.9292 51.4053 -4
    endloop
  endfacet
  facet normal 0 0 -1
    outer loop
      vertex 87.9292 49.9947 -4
      vertex 89.2708 49.5587 -4
      vertex 88.6 45.34 -4
    endloop
  endfacet
  facet normal 0 0 -1
    outer loop
      vertex 87.9292 51.4053 -4
      vertex 0 58.34 -4
      vertex 89.2708 51.8413 -4
    endloop
  endfacet
  facet normal 0 0 -1
    outer loop
      vertex 16.5 50.7 -4
      vertex 87.9292 49.9947 -4
      vertex 88.6 45.34 -4
    endloop
  endfacet
  facet normal 0 -0 -1
    outer loop
      vertex 89.2708 49.5587 -4
      vertex 90.5134 44.9594 -4
      vertex 88.6 45.34 -4
    endloop
  endfacet
  facet normal 0 0 -1
    outer loop
      vertex 90.5134 44.9594 -4
      vertex 89.2708 49.5587 -4
      vertex 90.1 50.7 -4
    endloop
  endfacet
  facet normal 0 0 -1
    outer loop
      vertex 111.6 58.34 -4
      vertex 90.1 50.7 -4
      vertex 89.2708 51.8413 -4
    endloop
  endfacet
  facet normal 0 0 -1
    outer loop
      vertex 89.2708 51.8413 -4
      vertex 0 58.34 -4
      vertex 111.6 58.34 -4
    endloop
  endfacet
  facet normal -0 0 -1
    outer loop
      vertex 95.5792 1.79466 -4
      vertex 14.3708 1.35873 -4
      vertex 88.6 8 -4
    endloop
  endfacet
  facet normal 0 0 -1
    outer loop
      vertex 111.6 -5 -4
      vertex 95.5792 1.79466 -4
      vertex 96.9208 1.35873 -4
    endloop
  endfacet
  facet normal 0 0 -1
    outer loop
      vertex 95.5792 1.79466 -4
      vertex 88.6 8 -4
      vertex 95.5792 3.20534 -4
    endloop
  endfacet
  facet normal 0 0 -1
    outer loop
      vertex 111.6 -5 -4
      vertex 96.9208 1.35873 -4
      vertex 97.75 2.5 -4
    endloop
  endfacet
  facet normal 0 0 -1
    outer loop
      vertex 111.6 -5 -4
      vertex 96.9208 3.64127 -4
      vertex 93.6 13 -4
    endloop
  endfacet
  facet normal 0 0 -1
    outer loop
      vertex 96.9208 3.64127 -4
      vertex 93.2194 11.0866 -4
      vertex 93.6 13 -4
    endloop
  endfacet
  facet normal 0 0 -1
    outer loop
      vertex 96.9208 3.64127 -4
      vertex 111.6 -5 -4
      vertex 97.75 2.5 -4
    endloop
  endfacet
  facet normal 0 1 0
    outer loop
      vertex 106.6 58.34 0
      vertex 111.6 58.34 -4
      vertex 0 58.34 -4
    endloop
  endfacet
  facet normal -0 1 0
    outer loop
      vertex 0 58.34 0
      vertex 106.6 58.34 0
      vertex 0 58.34 -4
    endloop
  endfacet
  facet normal 0 1 0
    outer loop
      vertex 111.6 58.34 11
      vertex 111.6 58.34 -4
      vertex 106.6 58.34 0
    endloop
  endfacet
  facet normal -0 1 0
    outer loop
      vertex 106.6 58.34 11
      vertex 111.6 58.34 11
      vertex 106.6 58.34 0
    endloop
  endfacet
  facet normal 0 0 1
    outer loop
      vertex 8 40.34 0
      vertex 0 58.34 0
      vertex 0 -5 0
    endloop
  endfacet
  facet normal 0 0 1
    outer loop
      vertex 8 40.34 0
      vertex 0 -5 0
      vertex 8 13 0
    endloop
  endfacet
  facet normal 0 0 1
    outer loop
      vertex 8.3806 42.2534 0
      vertex 0 58.34 0
      vertex 8 40.34 0
    endloop
  endfacet
  facet normal 0 0 1
    outer loop
      vertex 9.46447 43.8755 0
      vertex 0 58.34 0
      vertex 8.3806 42.2534 0
    endloop
  endfacet
  facet normal 0 0 1
    outer loop
      vertex 12.3 50.7 0
      vertex 0 58.34 0
      vertex 9.46447 43.8755 0
    endloop
  endfacet
  facet normal 0 0 1
    outer loop
      vertex 11.0866 44.9594 0
      vertex 13 45.34 0
      vertex 12.8729 48.9366 0
    endloop
  endfacet
  facet normal 0 0 1
    outer loop
      vertex 12.3 50.7 0
      vertex 9.46447 43.8755 0
      vertex 11.0866 44.9594 0
    endloop
  endfacet
  facet normal 0 0 1
    outer loop
      vertex 91.9 50.7 0
      vertex 92.1355 43.8755 0
      vertex 93.2194 42.2534 0
    endloop
  endfacet
  facet normal 0 0 1
    outer loop
      vertex 93.6 13 0
      vertex 97.4771 5.35317 0
      vertex 98.9771 4.26336 0
    endloop
  endfacet
  facet normal -0 0 1
    outer loop
      vertex 93.2194 42.2534 0
      vertex 93.6 40.34 0
      vertex 106.6 58.34 0
    endloop
  endfacet
  facet normal -0 0 1
    outer loop
      vertex 93.6 40.34 0
      vertex 98.9771 4.26336 0
      vertex 106.6 58.34 0
    endloop
  endfacet
  facet normal 0 0 1
    outer loop
      vertex 92.1355 9.46447 0
      vertex 94.1229 4.26336 0
      vertex 95.6229 5.35317 0
    endloop
  endfacet
  facet normal 0 0 1
    outer loop
      vertex 8 13 0
      vertex 0 -5 0
      vertex 8.3806 11.0866 0
    endloop
  endfacet
  facet normal 0 0 1
    outer loop
      vertex 88.6 8 0
      vertex 94.1229 0.736644 0
      vertex 93.55 2.5 0
    endloop
  endfacet
  facet normal 0 0 1
    outer loop
      vertex 9.46447 9.46447 0
      vertex 0 -5 0
      vertex 11 2.5 0
    endloop
  endfacet
  facet normal 0 0 1
    outer loop
      vertex 13.0729 5.35317 0
      vertex 11.0866 8.3806 0
      vertex 11.5729 4.26336 0
    endloop
  endfacet
  facet normal 0 0 1
    outer loop
      vertex 8.3806 11.0866 0
      vertex 0 -5 0
      vertex 9.46447 9.46447 0
    endloop
  endfacet
  facet normal 0 0 1
    outer loop
      vertex 0 -5 0
      vertex 106.6 -5 0
      vertex 14.9271 -0.35317 0
    endloop
  endfacet
  facet normal 0 0 1
    outer loop
      vertex 9.46447 9.46447 0
      vertex 11.5729 4.26336 0
      vertex 11.0866 8.3806 0
    endloop
  endfacet
  facet normal 0 0 1
    outer loop
      vertex 11 2.5 0
      vertex 0 -5 0
      vertex 11.5729 0.736644 0
    endloop
  endfacet
  facet normal 0 -0 1
    outer loop
      vertex 11 2.5 0
      vertex 11.5729 4.26336 0
      vertex 9.46447 9.46447 0
    endloop
  endfacet
  facet normal 0 0 1
    outer loop
      vertex 13.0729 5.35317 0
      vertex 13 8 0
      vertex 11.0866 8.3806 0
    endloop
  endfacet
  facet normal -0 0 1
    outer loop
      vertex 13 8 0
      vertex 16.4271 4.26336 0
      vertex 88.6 8 0
    endloop
  endfacet
  facet normal 0 -0 1
    outer loop
      vertex 13.0729 5.35317 0
      vertex 14.9271 5.35317 0
      vertex 13 8 0
    endloop
  endfacet
  facet normal -0 -0 1
    outer loop
      vertex 14.9271 5.35317 0
      vertex 16.4271 4.26336 0
      vertex 13 8 0
    endloop
  endfacet
  facet normal -0 0 1
    outer loop
      vertex 16.4271 4.26336 0
      vertex 17 2.5 0
      vertex 88.6 8 0
    endloop
  endfacet
  facet normal -0 0 1
    outer loop
      vertex 14.9271 -0.35317 0
      vertex 106.6 -5 0
      vertex 95.6229 -0.35317 0
    endloop
  endfacet
  facet normal 0 0 1
    outer loop
      vertex 16.4271 0.736644 0
      vertex 88.6 8 0
      vertex 17 2.5 0
    endloop
  endfacet
  facet normal 0 0 1
    outer loop
      vertex 0 -5 0
      vertex 14.9271 -0.35317 0
      vertex 13.0729 -0.35317 0
    endloop
  endfacet
  facet normal 0 0 1
    outer loop
      vertex 95.6229 -0.35317 0
      vertex 94.1229 0.736644 0
      vertex 16.4271 0.736644 0
    endloop
  endfacet
  facet normal 0 0 1
    outer loop
      vertex 0 -5 0
      vertex 13.0729 -0.35317 0
      vertex 11.5729 0.736644 0
    endloop
  endfacet
  facet normal 0 0 1
    outer loop
      vertex 11.0866 44.9594 0
      vertex 12.8729 48.9366 0
      vertex 12.3 50.7 0
    endloop
  endfacet
  facet normal 0 0 1
    outer loop
      vertex 0 58.34 0
      vertex 12.3 50.7 0
      vertex 12.8729 52.4634 0
    endloop
  endfacet
  facet normal 0 0 1
    outer loop
      vertex 0 58.34 0
      vertex 12.8729 52.4634 0
      vertex 14.3729 53.5532 0
    endloop
  endfacet
  facet normal -0 0 1
    outer loop
      vertex 0 58.34 0
      vertex 87.9729 53.5532 0
      vertex 106.6 58.34 0
    endloop
  endfacet
  facet normal 0 0 1
    outer loop
      vertex 13 45.34 0
      vertex 88.6 45.34 0
      vertex 16.2271 47.8468 0
    endloop
  endfacet
  facet normal 0 -0 1
    outer loop
      vertex 14.3729 53.5532 0
      vertex 16.2271 53.5532 0
      vertex 0 58.34 0
    endloop
  endfacet
  facet normal -0 0 1
    outer loop
      vertex 17.7271 48.9366 0
      vertex 88.6 45.34 0
      vertex 86.4729 48.9366 0
    endloop
  endfacet
  facet normal 0 -0 1
    outer loop
      vertex 18.3 50.7 0
      vertex 85.9 50.7 0
      vertex 17.7271 52.4634 0
    endloop
  endfacet
  facet normal 0 0 1
    outer loop
      vertex 88.6 45.34 0
      vertex 17.7271 48.9366 0
      vertex 16.2271 47.8468 0
    endloop
  endfacet
  facet normal 0 0 1
    outer loop
      vertex 17.7271 48.9366 0
      vertex 86.4729 48.9366 0
      vertex 18.3 50.7 0
    endloop
  endfacet
  facet normal 0 0 1
    outer loop
      vertex 13 45.34 0
      vertex 16.2271 47.8468 0
      vertex 14.3729 47.8468 0
    endloop
  endfacet
  facet normal 0 -0 1
    outer loop
      vertex 13 45.34 0
      vertex 14.3729 47.8468 0
      vertex 12.8729 48.9366 0
    endloop
  endfacet
  facet normal 0 -0 1
    outer loop
      vertex 17.7271 52.4634 0
      vertex 86.4729 52.4634 0
      vertex 16.2271 53.5532 0
    endloop
  endfacet
  facet normal 0 0 1
    outer loop
      vertex 86.4729 48.9366 0
      vertex 85.9 50.7 0
      vertex 18.3 50.7 0
    endloop
  endfacet
  facet normal 0 -0 1
    outer loop
      vertex 85.9 50.7 0
      vertex 86.4729 52.4634 0
      vertex 17.7271 52.4634 0
    endloop
  endfacet
  facet normal 0 -0 1
    outer loop
      vertex 93.2194 42.2534 0
      vertex 106.6 58.34 0
      vertex 91.9 50.7 0
    endloop
  endfacet
  facet normal 0 -0 1
    outer loop
      vertex 86.4729 52.4634 0
      vertex 87.9729 53.5532 0
      vertex 16.2271 53.5532 0
    endloop
  endfacet
  facet normal 0 0 1
    outer loop
      vertex 87.9729 53.5532 0
      vertex 0 58.34 0
      vertex 16.2271 53.5532 0
    endloop
  endfacet
  facet normal 0 -0 1
    outer loop
      vertex 89.8271 53.5532 0
      vertex 106.6 58.34 0
      vertex 87.9729 53.5532 0
    endloop
  endfacet
  facet normal 0 0 1
    outer loop
      vertex 86.4729 48.9366 0
      vertex 88.6 45.34 0
      vertex 87.9729 47.8468 0
    endloop
  endfacet
  facet normal 0 -0 1
    outer loop
      vertex 91.3271 52.4634 0
      vertex 106.6 58.34 0
      vertex 89.8271 53.5532 0
    endloop
  endfacet
  facet normal 0 0 1
    outer loop
      vertex 92.1355 43.8755 0
      vertex 91.3271 48.9366 0
      vertex 90.5134 44.9594 0
    endloop
  endfacet
  facet normal 0 -0 1
    outer loop
      vertex 91.9 50.7 0
      vertex 106.6 58.34 0
      vertex 91.3271 52.4634 0
    endloop
  endfacet
  facet normal 0 0 1
    outer loop
      vertex 91.9 50.7 0
      vertex 91.3271 48.9366 0
      vertex 92.1355 43.8755 0
    endloop
  endfacet
  facet normal 0 0 1
    outer loop
      vertex 89.8271 47.8468 0
      vertex 88.6 45.34 0
      vertex 90.5134 44.9594 0
    endloop
  endfacet
  facet normal -0 0 1
    outer loop
      vertex 89.8271 47.8468 0
      vertex 90.5134 44.9594 0
      vertex 91.3271 48.9366 0
    endloop
  endfacet
  facet normal -0 0 1
    outer loop
      vertex 87.9729 47.8468 0
      vertex 88.6 45.34 0
      vertex 89.8271 47.8468 0
    endloop
  endfacet
  facet normal 0 0 1
    outer loop
      vertex 16.4271 0.736644 0
      vertex 94.1229 0.736644 0
      vertex 88.6 8 0
    endloop
  endfacet
  facet normal 0 0 1
    outer loop
      vertex 94.1229 4.26336 0
      vertex 90.5134 8.3806 0
      vertex 88.6 8 0
    endloop
  endfacet
  facet normal -0 0 1
    outer loop
      vertex 90.5134 8.3806 0
      vertex 94.1229 4.26336 0
      vertex 92.1355 9.46447 0
    endloop
  endfacet
  facet normal 0 0 1
    outer loop
      vertex 95.6229 5.35317 0
      vertex 93.2194 11.0866 0
      vertex 92.1355 9.46447 0
    endloop
  endfacet
  facet normal 0 -0 1
    outer loop
      vertex 93.55 2.5 0
      vertex 94.1229 4.26336 0
      vertex 88.6 8 0
    endloop
  endfacet
  facet normal 0 0 1
    outer loop
      vertex 97.4771 5.35317 0
      vertex 93.6 13 0
      vertex 93.2194 11.0866 0
    endloop
  endfacet
  facet normal 0 0 1
    outer loop
      vertex 93.2194 11.0866 0
      vertex 95.6229 5.35317 0
      vertex 97.4771 5.35317 0
    endloop
  endfacet
  facet normal -0 0 1
    outer loop
      vertex 93.6 13 0
      vertex 98.9771 4.26336 0
      vertex 93.6 40.34 0
    endloop
  endfacet
  facet normal 0 0 1
    outer loop
      vertex 106.6 58.34 0
      vertex 98.9771 4.26336 0
      vertex 106.6 -5 0
    endloop
  endfacet
  facet normal 0 0 1
    outer loop
      vertex 98.9771 4.26336 0
      vertex 99.55 2.5 0
      vertex 106.6 -5 0
    endloop
  endfacet
  facet normal 0 0 1
    outer loop
      vertex 99.55 2.5 0
      vertex 98.9771 0.736644 0
      vertex 106.6 -5 0
    endloop
  endfacet
  facet normal 0 0 1
    outer loop
      vertex 98.9771 0.736644 0
      vertex 97.4771 -0.35317 0
      vertex 106.6 -5 0
    endloop
  endfacet
  facet normal 0 0 1
    outer loop
      vertex 97.4771 -0.35317 0
      vertex 95.6229 -0.35317 0
      vertex 106.6 -5 0
    endloop
  endfacet
  facet normal 0 0 1
    outer loop
      vertex 14.9271 -0.35317 0
      vertex 95.6229 -0.35317 0
      vertex 16.4271 0.736644 0
    endloop
  endfacet
  facet normal -1 0 0
    outer loop
      vertex 106.6 58.34 0
      vertex 106.6 -5 0
      vertex 106.6 43.34 2
    endloop
  endfacet
  facet normal -1 -0 0
    outer loop
      vertex 106.6 8.57342 3.03647
      vertex 106.6 -5 0
      vertex 106.6 -5 11
    endloop
  endfacet
  facet normal -1 -0 0
    outer loop
      vertex 106.6 9.88112 2.08637
      vertex 106.6 -5 0
      vertex 106.6 8.57342 3.03647
    endloop
  endfacet
  facet normal -1 0 0
    outer loop
      vertex 106.6 10.1189 2.08637
      vertex 106.6 11.4266 3.03647
      vertex 106.6 43.2211 2.08637
    endloop
  endfacet
  facet normal -1 -0 0
    outer loop
      vertex 106.6 10 2
      vertex 106.6 -5 0
      vertex 106.6 9.88112 2.08637
    endloop
  endfacet
  facet normal -1 0 0
    outer loop
      vertex 106.6 11.4266 3.03647
      vertex 106.6 41.9134 3.03647
      vertex 106.6 43.2211 2.08637
    endloop
  endfacet
  facet normal -1 0 -0
    outer loop
      vertex 106.6 10.1189 2.08637
      vertex 106.6 43.2211 2.08637
      vertex 106.6 10 2
    endloop
  endfacet
  facet normal -1 0 0
    outer loop
      vertex 106.6 11.4266 3.03647
      vertex 106.6 41.9588 3.17623
      vertex 106.6 41.9134 3.03647
    endloop
  endfacet
  facet normal -1 0 0
    outer loop
      vertex 106.6 8.57342 3.03647
      vertex 106.6 -5 11
      vertex 106.6 8.61882 3.17623
    endloop
  endfacet
  facet normal -1 0 0
    outer loop
      vertex 106.6 10.9271 4.57377
      vertex 106.6 42.4583 4.71353
      vertex 106.6 41.9588 3.17623
    endloop
  endfacet
  facet normal -1 0 0
    outer loop
      vertex 106.6 10.8817 4.71353
      vertex 106.6 -5 11
      vertex 106.6 58.34 11
    endloop
  endfacet
  facet normal -1 0 0
    outer loop
      vertex 106.6 10.7347 4.71353
      vertex 106.6 -5 11
      vertex 106.6 10.8817 4.71353
    endloop
  endfacet
  facet normal -1 0 0
    outer loop
      vertex 106.6 9.11832 4.71353
      vertex 106.6 -5 11
      vertex 106.6 10.7347 4.71353
    endloop
  endfacet
  facet normal -1 0 0
    outer loop
      vertex 106.6 8.61882 3.17623
      vertex 106.6 -5 11
      vertex 106.6 9.11832 4.71353
    endloop
  endfacet
  facet normal -1 0 0
    outer loop
      vertex 106.6 10 2
      vertex 106.6 43.2211 2.08637
      vertex 106.6 43.34 2
    endloop
  endfacet
  facet normal -1 0 0
    outer loop
      vertex 106.6 44.2671 4.57377
      vertex 106.6 58.34 11
      vertex 106.6 44.7666 3.03647
    endloop
  endfacet
  facet normal -1 0 -0
    outer loop
      vertex 106.6 10 2
      vertex 106.6 43.34 2
      vertex 106.6 -5 0
    endloop
  endfacet
  facet normal -1 0 0
    outer loop
      vertex 106.6 44.7666 3.03647
      vertex 106.6 58.34 11
      vertex 106.6 58.34 0
    endloop
  endfacet
  facet normal -1 0 -0
    outer loop
      vertex 106.6 43.4589 2.08637
      vertex 106.6 58.34 0
      vertex 106.6 43.34 2
    endloop
  endfacet
  facet normal -1 0 -0
    outer loop
      vertex 106.6 44.7666 3.03647
      vertex 106.6 58.34 0
      vertex 106.6 43.4589 2.08637
    endloop
  endfacet
  facet normal -1 0 0
    outer loop
      vertex 106.6 44.2671 4.57377
      vertex 106.6 44.2217 4.71353
      vertex 106.6 58.34 11
    endloop
  endfacet
  facet normal -1 0 0
    outer loop
      vertex 106.6 44.2217 4.71353
      vertex 106.6 44.0747 4.71353
      vertex 106.6 58.34 11
    endloop
  endfacet
  facet normal -1 0 0
    outer loop
      vertex 106.6 10.9271 4.57377
      vertex 106.6 10.8817 4.71353
      vertex 106.6 42.4583 4.71353
    endloop
  endfacet
  facet normal -1 0 0
    outer loop
      vertex 106.6 44.0747 4.71353
      vertex 106.6 42.4583 4.71353
      vertex 106.6 58.34 11
    endloop
  endfacet
  facet normal -1 0 0
    outer loop
      vertex 106.6 42.4583 4.71353
      vertex 106.6 10.8817 4.71353
      vertex 106.6 58.34 11
    endloop
  endfacet
  facet normal -1 0 0
    outer loop
      vertex 106.6 10.9271 4.57377
      vertex 106.6 41.9588 3.17623
      vertex 106.6 11.4266 3.03647
    endloop
  endfacet
  facet normal 1 -0 0
    outer loop
      vertex 8 13 0
      vertex 8 40.34 -4
      vertex 8 40.34 0
    endloop
  endfacet
  facet normal 1 0 0
    outer loop
      vertex 8 13 0
      vertex 8 13 -4
      vertex 8 40.34 -4
    endloop
  endfacet
  facet normal 0.55557 0.83147 -0
    outer loop
      vertex 11.0866 8.3806 -4
      vertex 9.46447 9.46447 0
      vertex 11.0866 8.3806 0
    endloop
  endfacet
  facet normal 0.55557 0.83147 0
    outer loop
      vertex 11.0866 8.3806 -4
      vertex 9.46447 9.46447 -4
      vertex 9.46447 9.46447 0
    endloop
  endfacet
  facet normal 0 1 -0
    outer loop
      vertex 88.6 8 -4
      vertex 13 8 0
      vertex 88.6 8 0
    endloop
  endfacet
  facet normal 0 1 0
    outer loop
      vertex 88.6 8 -4
      vertex 13 8 -4
      vertex 13 8 0
    endloop
  endfacet
  facet normal -0.83147 0.55557 0
    outer loop
      vertex 93.2194 11.0866 -4
      vertex 92.1355 9.46447 0
      vertex 93.2194 11.0866 0
    endloop
  endfacet
  facet normal -0.83147 0.55557 0
    outer loop
      vertex 93.2194 11.0866 -4
      vertex 92.1355 9.46447 -4
      vertex 92.1355 9.46447 0
    endloop
  endfacet
  facet normal 0.980785 0.19509 -0
    outer loop
      vertex 8 13 -4
      vertex 8 13 0
      vertex 8.3806 11.0866 0
    endloop
  endfacet
  facet normal 0.980785 0.19509 -0
    outer loop
      vertex 8.3806 11.0866 -4
      vertex 8 13 -4
      vertex 8.3806 11.0866 0
    endloop
  endfacet
  facet normal -1 0 0
    outer loop
      vertex 93.6 40.34 -4
      vertex 93.6 13 0
      vertex 93.6 40.34 0
    endloop
  endfacet
  facet normal -1 0 0
    outer loop
      vertex 93.6 40.34 -4
      vertex 93.6 13 -4
      vertex 93.6 13 0
    endloop
  endfacet
  facet normal -0.55557 0.83147 0
    outer loop
      vertex 92.1355 9.46447 -4
      vertex 90.5134 8.3806 0
      vertex 92.1355 9.46447 0
    endloop
  endfacet
  facet normal -0.55557 0.83147 0
    outer loop
      vertex 92.1355 9.46447 -4
      vertex 90.5134 8.3806 -4
      vertex 90.5134 8.3806 0
    endloop
  endfacet
  facet normal 0 -1 0
    outer loop
      vertex 13 45.34 0
      vertex 88.6 45.34 -4
      vertex 88.6 45.34 0
    endloop
  endfacet
  facet normal 0 -1 0
    outer loop
      vertex 13 45.34 0
      vertex 13 45.34 -4
      vertex 88.6 45.34 -4
    endloop
  endfacet
  facet normal 0.83147 0.55557 -0
    outer loop
      vertex 8.3806 11.0866 -4
      vertex 8.3806 11.0866 0
      vertex 9.46447 9.46447 0
    endloop
  endfacet
  facet normal 0.83147 0.55557 -0
    outer loop
      vertex 9.46447 9.46447 -4
      vertex 8.3806 11.0866 -4
      vertex 9.46447 9.46447 0
    endloop
  endfacet
  facet normal 0.19509 0.980785 -0
    outer loop
      vertex 13 8 -4
      vertex 11.0866 8.3806 0
      vertex 13 8 0
    endloop
  endfacet
  facet normal 0.19509 0.980785 0
    outer loop
      vertex 13 8 -4
      vertex 11.0866 8.3806 -4
      vertex 11.0866 8.3806 0
    endloop
  endfacet
  facet normal -0.980785 0.19509 0
    outer loop
      vertex 93.6 13 -4
      vertex 93.2194 11.0866 0
      vertex 93.6 13 0
    endloop
  endfacet
  facet normal -0.980785 0.19509 0
    outer loop
      vertex 93.6 13 -4
      vertex 93.2194 11.0866 -4
      vertex 93.2194 11.0866 0
    endloop
  endfacet
  facet normal -0.19509 0.980785 0
    outer loop
      vertex 90.5134 8.3806 -4
      vertex 88.6 8 0
      vertex 90.5134 8.3806 0
    endloop
  endfacet
  facet normal -0.19509 0.980785 0
    outer loop
      vertex 90.5134 8.3806 -4
      vertex 88.6 8 -4
      vertex 88.6 8 0
    endloop
  endfacet
  facet normal -0.55557 -0.83147 0
    outer loop
      vertex 90.5134 44.9594 0
      vertex 92.1355 43.8755 -4
      vertex 92.1355 43.8755 0
    endloop
  endfacet
  facet normal -0.55557 -0.83147 -0
    outer loop
      vertex 90.5134 44.9594 0
      vertex 90.5134 44.9594 -4
      vertex 92.1355 43.8755 -4
    endloop
  endfacet
  facet normal -0.980785 -0.19509 0
    outer loop
      vertex 93.2194 42.2534 -4
      vertex 93.6 40.34 -4
      vertex 93.6 40.34 0
    endloop
  endfacet
  facet normal -0.980785 -0.19509 -0
    outer loop
      vertex 93.2194 42.2534 0
      vertex 93.2194 42.2534 -4
      vertex 93.6 40.34 0
    endloop
  endfacet
  facet normal -0.19509 -0.980785 0
    outer loop
      vertex 88.6 45.34 0
      vertex 90.5134 44.9594 -4
      vertex 90.5134 44.9594 0
    endloop
  endfacet
  facet normal -0.19509 -0.980785 -0
    outer loop
      vertex 88.6 45.34 0
      vertex 88.6 45.34 -4
      vertex 90.5134 44.9594 -4
    endloop
  endfacet
  facet normal -0.83147 -0.55557 0
    outer loop
      vertex 92.1355 43.8755 -4
      vertex 93.2194 42.2534 -4
      vertex 93.2194 42.2534 0
    endloop
  endfacet
  facet normal -0.83147 -0.55557 -0
    outer loop
      vertex 92.1355 43.8755 0
      vertex 92.1355 43.8755 -4
      vertex 93.2194 42.2534 0
    endloop
  endfacet
  facet normal 0.55557 -0.83147 0
    outer loop
      vertex 9.46447 43.8755 0
      vertex 11.0866 44.9594 -4
      vertex 11.0866 44.9594 0
    endloop
  endfacet
  facet normal 0.55557 -0.83147 0
    outer loop
      vertex 9.46447 43.8755 0
      vertex 9.46447 43.8755 -4
      vertex 11.0866 44.9594 -4
    endloop
  endfacet
  facet normal 0.19509 -0.980785 0
    outer loop
      vertex 11.0866 44.9594 0
      vertex 13 45.34 -4
      vertex 13 45.34 0
    endloop
  endfacet
  facet normal 0.19509 -0.980785 0
    outer loop
      vertex 11.0866 44.9594 0
      vertex 11.0866 44.9594 -4
      vertex 13 45.34 -4
    endloop
  endfacet
  facet normal 0.980785 -0.19509 0
    outer loop
      vertex 8 40.34 0
      vertex 8.3806 42.2534 -4
      vertex 8.3806 42.2534 0
    endloop
  endfacet
  facet normal 0.980785 -0.19509 0
    outer loop
      vertex 8 40.34 0
      vertex 8 40.34 -4
      vertex 8.3806 42.2534 -4
    endloop
  endfacet
  facet normal 0.83147 -0.55557 0
    outer loop
      vertex 8.3806 42.2534 0
      vertex 9.46447 43.8755 -4
      vertex 9.46447 43.8755 0
    endloop
  endfacet
  facet normal 0.83147 -0.55557 0
    outer loop
      vertex 8.3806 42.2534 0
      vertex 8.3806 42.2534 -4
      vertex 9.46447 43.8755 -4
    endloop
  endfacet
  facet normal 0 0 1
    outer loop
      vertex 111.6 -5 11
      vertex 106.6 58.34 11
      vertex 106.6 -5 11
    endloop
  endfacet
  facet normal 0 -0 1
    outer loop
      vertex 111.6 -5 11
      vertex 111.6 58.34 11
      vertex 106.6 58.34 11
    endloop
  endfacet
  facet normal 1 0 0
    outer loop
      vertex 111.6 58.34 11
      vertex 111.6 -5 11
      vertex 111.6 42.4583 4.71353
    endloop
  endfacet
  facet normal 1 0 0
    outer loop
      vertex 111.6 8.57342 3.03647
      vertex 111.6 -5 11
      vertex 111.6 -5 -4
    endloop
  endfacet
  facet normal 1 0 0
    outer loop
      vertex 111.6 8.57342 3.03647
      vertex 111.6 -5 -4
      vertex 111.6 8.6923 2.9501
    endloop
  endfacet
  facet normal 1 0 0
    outer loop
      vertex 111.6 9.07291 4.57377
      vertex 111.6 -5 11
      vertex 111.6 8.57342 3.03647
    endloop
  endfacet
  facet normal 1 0 0
    outer loop
      vertex 111.6 -5 11
      vertex 111.6 9.11832 4.71353
      vertex 111.6 9.26527 4.71353
    endloop
  endfacet
  facet normal 1 0 0
    outer loop
      vertex 111.6 9.11832 4.71353
      vertex 111.6 -5 11
      vertex 111.6 9.07291 4.57377
    endloop
  endfacet
  facet normal 1 0 0
    outer loop
      vertex 111.6 -5 11
      vertex 111.6 9.26527 4.71353
      vertex 111.6 10.8817 4.71353
    endloop
  endfacet
  facet normal 1 0 0
    outer loop
      vertex 111.6 11.3812 3.17623
      vertex 111.6 11.4266 3.03647
      vertex 111.6 41.9134 3.03647
    endloop
  endfacet
  facet normal 1 -0 0
    outer loop
      vertex 111.6 11.4266 3.03647
      vertex 111.6 42.0323 2.9501
      vertex 111.6 41.9134 3.03647
    endloop
  endfacet
  facet normal 1 0 -0
    outer loop
      vertex 111.6 11.3812 3.17623
      vertex 111.6 42.4129 4.57377
      vertex 111.6 10.8817 4.71353
    endloop
  endfacet
  facet normal 1 0 0
    outer loop
      vertex 111.6 11.4266 3.03647
      vertex 111.6 11.3077 2.9501
      vertex 111.6 42.0323 2.9501
    endloop
  endfacet
  facet normal 1 0 0
    outer loop
      vertex 111.6 8.6923 2.9501
      vertex 111.6 -5 -4
      vertex 111.6 10 2
    endloop
  endfacet
  facet normal 1 -0 0
    outer loop
      vertex 111.6 11.3077 2.9501
      vertex 111.6 43.34 2
      vertex 111.6 42.0323 2.9501
    endloop
  endfacet
  facet normal 1 0 0
    outer loop
      vertex 111.6 10 2
      vertex 111.6 -5 -4
      vertex 111.6 58.34 -4
    endloop
  endfacet
  facet normal 1 0 0
    outer loop
      vertex 111.6 11.3077 2.9501
      vertex 111.6 10 2
      vertex 111.6 43.34 2
    endloop
  endfacet
  facet normal 1 -0 0
    outer loop
      vertex 111.6 11.3812 3.17623
      vertex 111.6 41.9134 3.03647
      vertex 111.6 42.4129 4.57377
    endloop
  endfacet
  facet normal 1 -0 0
    outer loop
      vertex 111.6 10.8817 4.71353
      vertex 111.6 42.4129 4.57377
      vertex 111.6 42.4583 4.71353
    endloop
  endfacet
  facet normal 1 0 -0
    outer loop
      vertex 111.6 10.8817 4.71353
      vertex 111.6 42.4583 4.71353
      vertex 111.6 -5 11
    endloop
  endfacet
  facet normal 1 0 0
    outer loop
      vertex 111.6 42.4583 4.71353
      vertex 111.6 42.6053 4.71353
      vertex 111.6 58.34 11
    endloop
  endfacet
  facet normal 1 -0 0
    outer loop
      vertex 111.6 43.34 2
      vertex 111.6 58.34 -4
      vertex 111.6 44.6477 2.9501
    endloop
  endfacet
  facet normal 1 -0 0
    outer loop
      vertex 111.6 42.6053 4.71353
      vertex 111.6 44.2217 4.71353
      vertex 111.6 58.34 11
    endloop
  endfacet
  facet normal 1 -0 0
    outer loop
      vertex 111.6 44.7666 3.03647
      vertex 111.6 58.34 -4
      vertex 111.6 58.34 11
    endloop
  endfacet
  facet normal 1 0 -0
    outer loop
      vertex 111.6 44.7212 3.17623
      vertex 111.6 58.34 11
      vertex 111.6 44.2217 4.71353
    endloop
  endfacet
  facet normal 1 0 -0
    outer loop
      vertex 111.6 44.7666 3.03647
      vertex 111.6 58.34 11
      vertex 111.6 44.7212 3.17623
    endloop
  endfacet
  facet normal 1 -0 0
    outer loop
      vertex 111.6 44.6477 2.9501
      vertex 111.6 58.34 -4
      vertex 111.6 44.7666 3.03647
    endloop
  endfacet
  facet normal 1 0 0
    outer loop
      vertex 111.6 43.34 2
      vertex 111.6 10 2
      vertex 111.6 58.34 -4
    endloop
  endfacet
  facet normal 1.77636e-16 0 -1
    outer loop
      vertex 106.6 9.11832 4.71353
      vertex 106.6 10.7347 4.71353
      vertex 111.6 9.26527 4.71353
    endloop
  endfacet
  facet normal 1.77636e-16 0 -1
    outer loop
      vertex 111.6 9.11832 4.71353
      vertex 106.6 9.11832 4.71353
      vertex 111.6 9.26527 4.71353
    endloop
  endfacet
  facet normal 0 0 -1
    outer loop
      vertex 106.6 10.7347 4.71353
      vertex 106.6 10.8817 4.71353
      vertex 111.6 10.8817 4.71353
    endloop
  endfacet
  facet normal 1.61487e-17 -5.49476e-16 -1
    outer loop
      vertex 111.6 9.26527 4.71353
      vertex 106.6 10.7347 4.71353
      vertex 111.6 10.8817 4.71353
    endloop
  endfacet
  facet normal 5.54842e-17 0.951057 -0.309017
    outer loop
      vertex 111.6 9.07291 4.57377
      vertex 106.6 9.11832 4.71353
      vertex 111.6 9.11832 4.71353
    endloop
  endfacet
  facet normal 3.15949e-16 0.951057 -0.309017
    outer loop
      vertex 111.6 9.07291 4.57377
      vertex 106.6 8.61882 3.17623
      vertex 106.6 9.11832 4.71353
    endloop
  endfacet
  facet normal -2.15565e-16 -0.587785 0.809017
    outer loop
      vertex 106.6 11.4266 3.03647
      vertex 111.6 11.3077 2.9501
      vertex 111.6 11.4266 3.03647
    endloop
  endfacet
  facet normal -3.84633e-16 -0.587785 0.809017
    outer loop
      vertex 106.6 11.4266 3.03647
      vertex 106.6 10.1189 2.08637
      vertex 111.6 11.3077 2.9501
    endloop
  endfacet
  facet normal 8.26361e-17 -0.951057 -0.309017
    outer loop
      vertex 111.6 11.3812 3.17623
      vertex 106.6 11.4266 3.03647
      vertex 111.6 11.4266 3.03647
    endloop
  endfacet
  facet normal -1.51106e-16 -0.951057 -0.309017
    outer loop
      vertex 111.6 11.3812 3.17623
      vertex 106.6 10.9271 4.57377
      vertex 106.6 11.4266 3.03647
    endloop
  endfacet
  facet normal 1.06461e-16 -0.951057 -0.309017
    outer loop
      vertex 111.6 10.8817 4.71353
      vertex 106.6 10.9271 4.57377
      vertex 111.6 11.3812 3.17623
    endloop
  endfacet
  facet normal -0 -0.951057 -0.309017
    outer loop
      vertex 111.6 10.8817 4.71353
      vertex 106.6 10.8817 4.71353
      vertex 106.6 10.9271 4.57377
    endloop
  endfacet
  facet normal -1.71711e-17 0.951057 -0.309017
    outer loop
      vertex 111.6 8.57342 3.03647
      vertex 106.6 8.61882 3.17623
      vertex 111.6 9.07291 4.57377
    endloop
  endfacet
  facet normal 2.74462e-17 0.951057 -0.309017
    outer loop
      vertex 111.6 8.57342 3.03647
      vertex 106.6 8.57342 3.03647
      vertex 106.6 8.61882 3.17623
    endloop
  endfacet
  facet normal -7.18551e-17 0.587785 0.809017
    outer loop
      vertex 106.6 8.57342 3.03647
      vertex 111.6 8.57342 3.03647
      vertex 111.6 8.6923 2.9501
    endloop
  endfacet
  facet normal -8.24214e-17 0.587785 0.809017
    outer loop
      vertex 106.6 9.88112 2.08637
      vertex 106.6 8.57342 3.03647
      vertex 111.6 8.6923 2.9501
    endloop
  endfacet
  facet normal -2.61001e-16 0.587785 0.809017
    outer loop
      vertex 106.6 9.88112 2.08637
      vertex 111.6 8.6923 2.9501
      vertex 111.6 10 2
    endloop
  endfacet
  facet normal -2.15565e-16 0.587785 0.809017
    outer loop
      vertex 106.6 10 2
      vertex 106.6 9.88112 2.08637
      vertex 111.6 10 2
    endloop
  endfacet
  facet normal -7.21187e-17 -0.587785 0.809017
    outer loop
      vertex 106.6 10.1189 2.08637
      vertex 111.6 10 2
      vertex 111.6 11.3077 2.9501
    endloop
  endfacet
  facet normal -2.14854e-16 -0.587785 0.809017
    outer loop
      vertex 106.6 10.1189 2.08637
      vertex 106.6 10 2
      vertex 111.6 10 2
    endloop
  endfacet
  facet normal 1.77636e-16 0 -1
    outer loop
      vertex 106.6 42.4583 4.71353
      vertex 106.6 44.0747 4.71353
      vertex 111.6 42.6053 4.71353
    endloop
  endfacet
  facet normal 1.77636e-16 0 -1
    outer loop
      vertex 111.6 42.4583 4.71353
      vertex 106.6 42.4583 4.71353
      vertex 111.6 42.6053 4.71353
    endloop
  endfacet
  facet normal 0 0 -1
    outer loop
      vertex 106.6 44.0747 4.71353
      vertex 106.6 44.2217 4.71353
      vertex 111.6 44.2217 4.71353
    endloop
  endfacet
  facet normal 1.61487e-17 -5.49476e-16 -1
    outer loop
      vertex 111.6 42.6053 4.71353
      vertex 106.6 44.0747 4.71353
      vertex 111.6 44.2217 4.71353
    endloop
  endfacet
  facet normal 5.43037e-17 0.951057 -0.309017
    outer loop
      vertex 111.6 42.4129 4.57377
      vertex 106.6 42.4583 4.71353
      vertex 111.6 42.4583 4.71353
    endloop
  endfacet
  facet normal 9.30675e-16 0.951057 -0.309017
    outer loop
      vertex 111.6 42.4129 4.57377
      vertex 106.6 41.9588 3.17623
      vertex 106.6 42.4583 4.71353
    endloop
  endfacet
  facet normal -2.15565e-16 -0.587785 0.809017
    outer loop
      vertex 106.6 44.7666 3.03647
      vertex 111.6 44.6477 2.9501
      vertex 111.6 44.7666 3.03647
    endloop
  endfacet
  facet normal -5.75233e-16 -0.587785 0.809017
    outer loop
      vertex 106.6 44.7666 3.03647
      vertex 106.6 43.4589 2.08637
      vertex 111.6 44.6477 2.9501
    endloop
  endfacet
  facet normal 8.26361e-17 -0.951057 -0.309017
    outer loop
      vertex 111.6 44.7212 3.17623
      vertex 106.6 44.7666 3.03647
      vertex 111.6 44.7666 3.03647
    endloop
  endfacet
  facet normal -7.64115e-16 -0.951057 -0.309017
    outer loop
      vertex 111.6 44.7212 3.17623
      vertex 106.6 44.2671 4.57377
      vertex 106.6 44.7666 3.03647
    endloop
  endfacet
  facet normal 4.13824e-16 -0.951057 -0.309017
    outer loop
      vertex 111.6 44.2217 4.71353
      vertex 106.6 44.2671 4.57377
      vertex 111.6 44.7212 3.17623
    endloop
  endfacet
  facet normal -0 -0.951057 -0.309017
    outer loop
      vertex 111.6 44.2217 4.71353
      vertex 106.6 44.2217 4.71353
      vertex 106.6 44.2671 4.57377
    endloop
  endfacet
  facet normal -3.24534e-16 0.951057 -0.309017
    outer loop
      vertex 111.6 41.9134 3.03647
      vertex 106.6 41.9588 3.17623
      vertex 111.6 42.4129 4.57377
    endloop
  endfacet
  facet normal 2.74462e-17 0.951057 -0.309017
    outer loop
      vertex 111.6 41.9134 3.03647
      vertex 106.6 41.9134 3.03647
      vertex 106.6 41.9588 3.17623
    endloop
  endfacet
  facet normal -7.18551e-17 0.587785 0.809017
    outer loop
      vertex 106.6 41.9134 3.03647
      vertex 111.6 41.9134 3.03647
      vertex 111.6 42.0323 2.9501
    endloop
  endfacet
  facet normal 3.02212e-16 0.587785 0.809017
    outer loop
      vertex 106.6 43.2211 2.08637
      vertex 106.6 41.9134 3.03647
      vertex 111.6 42.0323 2.9501
    endloop
  endfacet
  facet normal -6.40483e-16 0.587785 0.809017
    outer loop
      vertex 106.6 43.2211 2.08637
      vertex 111.6 42.0323 2.9501
      vertex 111.6 43.34 2
    endloop
  endfacet
  facet normal -2.15565e-16 0.587785 0.809017
    outer loop
      vertex 106.6 43.34 2
      vertex 106.6 43.2211 2.08637
      vertex 111.6 43.34 2
    endloop
  endfacet
  facet normal 1.18481e-16 -0.587785 0.809017
    outer loop
      vertex 106.6 43.4589 2.08637
      vertex 111.6 43.34 2
      vertex 111.6 44.6477 2.9501
    endloop
  endfacet
  facet normal -2.14854e-16 -0.587785 0.809017
    outer loop
      vertex 106.6 43.4589 2.08637
      vertex 106.6 43.34 2
      vertex 111.6 43.34 2
    endloop
  endfacet
  facet normal -0.951057 -0.309017 0
    outer loop
      vertex 11.5729 0.736644 4
      vertex 11 2.5 4
      vertex 11 2.5 0
    endloop
  endfacet
  facet normal -0.951057 -0.309017 0
    outer loop
      vertex 11.5729 0.736644 0
      vertex 11.5729 0.736644 4
      vertex 11 2.5 0
    endloop
  endfacet
  facet normal 0.587785 0.809017 0
    outer loop
      vertex 14.9271 5.35317 4
      vertex 16.4271 4.26336 0
      vertex 14.9271 5.35317 0
    endloop
  endfacet
  facet normal 0.587785 0.809017 0
    outer loop
      vertex 14.9271 5.35317 4
      vertex 16.4271 4.26336 4
      vertex 16.4271 4.26336 0
    endloop
  endfacet
  facet normal 0 0 1
    outer loop
      vertex 13.0292 3.20534 4
      vertex 11.5729 4.26336 4
      vertex 11 2.5 4
    endloop
  endfacet
  facet normal 0 -0 1
    outer loop
      vertex 11.5729 0.736644 4
      vertex 13.0292 1.79466 4
      vertex 11 2.5 4
    endloop
  endfacet
  facet normal 0 -0 1
    outer loop
      vertex 13.0729 -0.35317 4
      vertex 14.3708 1.35873 4
      vertex 13.0292 1.79466 4
    endloop
  endfacet
  facet normal 0 0 1
    outer loop
      vertex 13.0729 5.35317 4
      vertex 13.0292 3.20534 4
      vertex 14.3708 3.64127 4
    endloop
  endfacet
  facet normal 0 -0 1
    outer loop
      vertex 16.4271 0.736644 4
      vertex 17 2.5 4
      vertex 15.2 2.5 4
    endloop
  endfacet
  facet normal 0 0 1
    outer loop
      vertex 13.0729 -0.35317 4
      vertex 13.0292 1.79466 4
      vertex 11.5729 0.736644 4
    endloop
  endfacet
  facet normal 0 0 1
    outer loop
      vertex 14.9271 5.35317 4
      vertex 13.0729 5.35317 4
      vertex 14.3708 3.64127 4
    endloop
  endfacet
  facet normal 0 -0 1
    outer loop
      vertex 13.0292 1.79466 4
      vertex 13.0292 3.20534 4
      vertex 11 2.5 4
    endloop
  endfacet
  facet normal 0 -0 1
    outer loop
      vertex 13.0292 3.20534 4
      vertex 13.0729 5.35317 4
      vertex 11.5729 4.26336 4
    endloop
  endfacet
  facet normal 0 0 1
    outer loop
      vertex 14.9271 5.35317 4
      vertex 14.3708 3.64127 4
      vertex 16.4271 4.26336 4
    endloop
  endfacet
  facet normal 0 0 1
    outer loop
      vertex 15.2 2.5 4
      vertex 17 2.5 4
      vertex 16.4271 4.26336 4
    endloop
  endfacet
  facet normal 0 0 1
    outer loop
      vertex 16.4271 0.736644 4
      vertex 14.3708 1.35873 4
      vertex 14.9271 -0.35317 4
    endloop
  endfacet
  facet normal 0 -0 1
    outer loop
      vertex 15.2 2.5 4
      vertex 16.4271 4.26336 4
      vertex 14.3708 3.64127 4
    endloop
  endfacet
  facet normal 0 0 1
    outer loop
      vertex 15.2 2.5 4
      vertex 14.3708 1.35873 4
      vertex 16.4271 0.736644 4
    endloop
  endfacet
  facet normal 0 0 1
    outer loop
      vertex 14.3708 1.35873 4
      vertex 13.0729 -0.35317 4
      vertex 14.9271 -0.35317 4
    endloop
  endfacet
  facet normal -0.951057 0.309017 0
    outer loop
      vertex 11 2.5 4
      vertex 11.5729 4.26336 0
      vertex 11 2.5 0
    endloop
  endfacet
  facet normal -0.951057 0.309017 0
    outer loop
      vertex 11 2.5 4
      vertex 11.5729 4.26336 4
      vertex 11.5729 4.26336 0
    endloop
  endfacet
  facet normal 0.587785 -0.809017 0
    outer loop
      vertex 16.4271 0.736644 0
      vertex 14.9271 -0.35317 4
      vertex 14.9271 -0.35317 0
    endloop
  endfacet
  facet normal 0.587785 -0.809017 0
    outer loop
      vertex 16.4271 0.736644 0
      vertex 16.4271 0.736644 4
      vertex 14.9271 -0.35317 4
    endloop
  endfacet
  facet normal -0.587785 -0.809017 0
    outer loop
      vertex 13.0729 -0.35317 0
      vertex 11.5729 0.736644 4
      vertex 11.5729 0.736644 0
    endloop
  endfacet
  facet normal -0.587785 -0.809017 0
    outer loop
      vertex 13.0729 -0.35317 0
      vertex 13.0729 -0.35317 4
      vertex 11.5729 0.736644 4
    endloop
  endfacet
  facet normal 0.951057 0.309017 0
    outer loop
      vertex 17 2.5 4
      vertex 17 2.5 0
      vertex 16.4271 4.26336 0
    endloop
  endfacet
  facet normal 0.951057 0.309017 0
    outer loop
      vertex 16.4271 4.26336 4
      vertex 17 2.5 4
      vertex 16.4271 4.26336 0
    endloop
  endfacet
  facet normal -0.587785 0.809017 0
    outer loop
      vertex 11.5729 4.26336 4
      vertex 13.0729 5.35317 0
      vertex 11.5729 4.26336 0
    endloop
  endfacet
  facet normal -0.587785 0.809017 0
    outer loop
      vertex 11.5729 4.26336 4
      vertex 13.0729 5.35317 4
      vertex 13.0729 5.35317 0
    endloop
  endfacet
  facet normal 0 1 0
    outer loop
      vertex 13.0729 5.35317 4
      vertex 14.9271 5.35317 0
      vertex 13.0729 5.35317 0
    endloop
  endfacet
  facet normal -0 1 0
    outer loop
      vertex 13.0729 5.35317 4
      vertex 14.9271 5.35317 4
      vertex 14.9271 5.35317 0
    endloop
  endfacet
  facet normal -2.39517e-16 -1 0
    outer loop
      vertex 14.9271 -0.35317 0
      vertex 13.0729 -0.35317 4
      vertex 13.0729 -0.35317 0
    endloop
  endfacet
  facet normal -2.39517e-16 -1 0
    outer loop
      vertex 14.9271 -0.35317 0
      vertex 14.9271 -0.35317 4
      vertex 13.0729 -0.35317 4
    endloop
  endfacet
  facet normal 0.951057 -0.309017 0
    outer loop
      vertex 17 2.5 0
      vertex 16.4271 0.736644 4
      vertex 16.4271 0.736644 0
    endloop
  endfacet
  facet normal 0.951057 -0.309017 0
    outer loop
      vertex 17 2.5 0
      vertex 17 2.5 4
      vertex 16.4271 0.736644 4
    endloop
  endfacet
  facet normal -0.951057 -0.309017 0
    outer loop
      vertex 94.1229 0.736644 4
      vertex 93.55 2.5 4
      vertex 93.55 2.5 0
    endloop
  endfacet
  facet normal -0.951057 -0.309017 0
    outer loop
      vertex 94.1229 0.736644 0
      vertex 94.1229 0.736644 4
      vertex 93.55 2.5 0
    endloop
  endfacet
  facet normal 0.587785 0.809017 0
    outer loop
      vertex 97.4771 5.35317 4
      vertex 98.9771 4.26336 0
      vertex 97.4771 5.35317 0
    endloop
  endfacet
  facet normal 0.587785 0.809017 0
    outer loop
      vertex 97.4771 5.35317 4
      vertex 98.9771 4.26336 4
      vertex 98.9771 4.26336 0
    endloop
  endfacet
  facet normal 0 0 1
    outer loop
      vertex 95.6229 5.35317 4
      vertex 94.1229 4.26336 4
      vertex 95.5792 3.20534 4
    endloop
  endfacet
  facet normal 0 -0 1
    outer loop
      vertex 94.1229 0.736644 4
      vertex 95.5792 1.79466 4
      vertex 93.55 2.5 4
    endloop
  endfacet
  facet normal 0 0 1
    outer loop
      vertex 96.9208 1.35873 4
      vertex 95.5792 1.79466 4
      vertex 95.6229 -0.35317 4
    endloop
  endfacet
  facet normal 0 -0 1
    outer loop
      vertex 97.4771 -0.35317 4
      vertex 98.9771 0.736644 4
      vertex 96.9208 1.35873 4
    endloop
  endfacet
  facet normal 0 0 1
    outer loop
      vertex 95.6229 5.35317 4
      vertex 95.5792 3.20534 4
      vertex 96.9208 3.64127 4
    endloop
  endfacet
  facet normal 0 0 1
    outer loop
      vertex 95.6229 -0.35317 4
      vertex 95.5792 1.79466 4
      vertex 94.1229 0.736644 4
    endloop
  endfacet
  facet normal 0 0 1
    outer loop
      vertex 95.5792 3.20534 4
      vertex 94.1229 4.26336 4
      vertex 93.55 2.5 4
    endloop
  endfacet
  facet normal -0 0 1
    outer loop
      vertex 95.6229 5.35317 4
      vertex 96.9208 3.64127 4
      vertex 97.4771 5.35317 4
    endloop
  endfacet
  facet normal 0 0 1
    outer loop
      vertex 95.5792 3.20534 4
      vertex 93.55 2.5 4
      vertex 95.5792 1.79466 4
    endloop
  endfacet
  facet normal 0 0 1
    outer loop
      vertex 97.4771 5.35317 4
      vertex 96.9208 3.64127 4
      vertex 98.9771 4.26336 4
    endloop
  endfacet
  facet normal 0 0 1
    outer loop
      vertex 97.75 2.5 4
      vertex 99.55 2.5 4
      vertex 98.9771 4.26336 4
    endloop
  endfacet
  facet normal -0 0 1
    outer loop
      vertex 96.9208 3.64127 4
      vertex 97.75 2.5 4
      vertex 98.9771 4.26336 4
    endloop
  endfacet
  facet normal -0 0 1
    outer loop
      vertex 97.75 2.5 4
      vertex 98.9771 0.736644 4
      vertex 99.55 2.5 4
    endloop
  endfacet
  facet normal 0 0 1
    outer loop
      vertex 97.75 2.5 4
      vertex 96.9208 1.35873 4
      vertex 98.9771 0.736644 4
    endloop
  endfacet
  facet normal 0 0 1
    outer loop
      vertex 96.9208 1.35873 4
      vertex 95.6229 -0.35317 4
      vertex 97.4771 -0.35317 4
    endloop
  endfacet
  facet normal -0.951057 0.309017 0
    outer loop
      vertex 93.55 2.5 4
      vertex 94.1229 4.26336 0
      vertex 93.55 2.5 0
    endloop
  endfacet
  facet normal -0.951057 0.309017 0
    outer loop
      vertex 93.55 2.5 4
      vertex 94.1229 4.26336 4
      vertex 94.1229 4.26336 0
    endloop
  endfacet
  facet normal 0.587785 -0.809017 0
    outer loop
      vertex 98.9771 0.736644 0
      vertex 97.4771 -0.35317 4
      vertex 97.4771 -0.35317 0
    endloop
  endfacet
  facet normal 0.587785 -0.809017 0
    outer loop
      vertex 98.9771 0.736644 0
      vertex 98.9771 0.736644 4
      vertex 97.4771 -0.35317 4
    endloop
  endfacet
  facet normal -0.587785 -0.809017 0
    outer loop
      vertex 95.6229 -0.35317 0
      vertex 94.1229 0.736644 4
      vertex 94.1229 0.736644 0
    endloop
  endfacet
  facet normal -0.587785 -0.809017 0
    outer loop
      vertex 95.6229 -0.35317 0
      vertex 95.6229 -0.35317 4
      vertex 94.1229 0.736644 4
    endloop
  endfacet
  facet normal 0.951057 0.309017 0
    outer loop
      vertex 99.55 2.5 4
      vertex 99.55 2.5 0
      vertex 98.9771 4.26336 0
    endloop
  endfacet
  facet normal 0.951057 0.309017 0
    outer loop
      vertex 98.9771 4.26336 4
      vertex 99.55 2.5 4
      vertex 98.9771 4.26336 0
    endloop
  endfacet
  facet normal -0.587785 0.809017 0
    outer loop
      vertex 94.1229 4.26336 4
      vertex 95.6229 5.35317 0
      vertex 94.1229 4.26336 0
    endloop
  endfacet
  facet normal -0.587785 0.809017 0
    outer loop
      vertex 94.1229 4.26336 4
      vertex 95.6229 5.35317 4
      vertex 95.6229 5.35317 0
    endloop
  endfacet
  facet normal 0 1 0
    outer loop
      vertex 95.6229 5.35317 4
      vertex 97.4771 5.35317 0
      vertex 95.6229 5.35317 0
    endloop
  endfacet
  facet normal -0 1 0
    outer loop
      vertex 95.6229 5.35317 4
      vertex 97.4771 5.35317 4
      vertex 97.4771 5.35317 0
    endloop
  endfacet
  facet normal -2.39517e-16 -1 0
    outer loop
      vertex 97.4771 -0.35317 0
      vertex 95.6229 -0.35317 4
      vertex 95.6229 -0.35317 0
    endloop
  endfacet
  facet normal -2.39517e-16 -1 0
    outer loop
      vertex 97.4771 -0.35317 0
      vertex 97.4771 -0.35317 4
      vertex 95.6229 -0.35317 4
    endloop
  endfacet
  facet normal 0.951057 -0.309017 0
    outer loop
      vertex 99.55 2.5 0
      vertex 98.9771 0.736644 4
      vertex 98.9771 0.736644 0
    endloop
  endfacet
  facet normal 0.951057 -0.309017 0
    outer loop
      vertex 99.55 2.5 0
      vertex 99.55 2.5 4
      vertex 98.9771 0.736644 4
    endloop
  endfacet
  facet normal -0.951057 -0.309017 0
    outer loop
      vertex 12.8729 48.9366 4
      vertex 12.3 50.7 4
      vertex 12.3 50.7 0
    endloop
  endfacet
  facet normal -0.951057 -0.309017 0
    outer loop
      vertex 12.8729 48.9366 0
      vertex 12.8729 48.9366 4
      vertex 12.3 50.7 0
    endloop
  endfacet
  facet normal 0 1 0
    outer loop
      vertex 14.3729 53.5532 4
      vertex 16.2271 53.5532 0
      vertex 14.3729 53.5532 0
    endloop
  endfacet
  facet normal -0 1 0
    outer loop
      vertex 14.3729 53.5532 4
      vertex 16.2271 53.5532 4
      vertex 16.2271 53.5532 0
    endloop
  endfacet
  facet normal 0.951057 0.309017 0
    outer loop
      vertex 18.3 50.7 4
      vertex 18.3 50.7 0
      vertex 17.7271 52.4634 0
    endloop
  endfacet
  facet normal 0.951057 0.309017 0
    outer loop
      vertex 17.7271 52.4634 4
      vertex 18.3 50.7 4
      vertex 17.7271 52.4634 0
    endloop
  endfacet
  facet normal -0.587785 -0.809017 0
    outer loop
      vertex 14.3729 47.8468 0
      vertex 12.8729 48.9366 4
      vertex 12.8729 48.9366 0
    endloop
  endfacet
  facet normal -0.587785 -0.809017 0
    outer loop
      vertex 14.3729 47.8468 0
      vertex 14.3729 47.8468 4
      vertex 12.8729 48.9366 4
    endloop
  endfacet
  facet normal -0.951057 0.309017 0
    outer loop
      vertex 12.3 50.7 4
      vertex 12.8729 52.4634 0
      vertex 12.3 50.7 0
    endloop
  endfacet
  facet normal -0.951057 0.309017 0
    outer loop
      vertex 12.3 50.7 4
      vertex 12.8729 52.4634 4
      vertex 12.8729 52.4634 0
    endloop
  endfacet
  facet normal 0.587785 -0.809017 0
    outer loop
      vertex 17.7271 48.9366 0
      vertex 16.2271 47.8468 4
      vertex 16.2271 47.8468 0
    endloop
  endfacet
  facet normal 0.587785 -0.809017 0
    outer loop
      vertex 17.7271 48.9366 0
      vertex 17.7271 48.9366 4
      vertex 16.2271 47.8468 4
    endloop
  endfacet
  facet normal 0.587785 0.809017 0
    outer loop
      vertex 16.2271 53.5532 4
      vertex 17.7271 52.4634 0
      vertex 16.2271 53.5532 0
    endloop
  endfacet
  facet normal 0.587785 0.809017 0
    outer loop
      vertex 16.2271 53.5532 4
      vertex 17.7271 52.4634 4
      vertex 17.7271 52.4634 0
    endloop
  endfacet
  facet normal -0.587785 0.809017 0
    outer loop
      vertex 12.8729 52.4634 4
      vertex 14.3729 53.5532 0
      vertex 12.8729 52.4634 0
    endloop
  endfacet
  facet normal -0.587785 0.809017 0
    outer loop
      vertex 12.8729 52.4634 4
      vertex 14.3729 53.5532 4
      vertex 14.3729 53.5532 0
    endloop
  endfacet
  facet normal 0 0 1
    outer loop
      vertex 14.3292 51.4053 4
      vertex 12.8729 52.4634 4
      vertex 12.3 50.7 4
    endloop
  endfacet
  facet normal 0 0 1
    outer loop
      vertex 17.7271 48.9366 4
      vertex 16.5 50.7 4
      vertex 15.6708 49.5587 4
    endloop
  endfacet
  facet normal 0 0 1
    outer loop
      vertex 14.3729 47.8468 4
      vertex 14.3292 49.9947 4
      vertex 12.8729 48.9366 4
    endloop
  endfacet
  facet normal 0 0 1
    outer loop
      vertex 15.6708 49.5587 4
      vertex 14.3292 49.9947 4
      vertex 14.3729 47.8468 4
    endloop
  endfacet
  facet normal 0 0 1
    outer loop
      vertex 14.3729 53.5532 4
      vertex 14.3292 51.4053 4
      vertex 15.6708 51.8413 4
    endloop
  endfacet
  facet normal 0 -0 1
    outer loop
      vertex 17.7271 48.9366 4
      vertex 18.3 50.7 4
      vertex 16.5 50.7 4
    endloop
  endfacet
  facet normal 0 -0 1
    outer loop
      vertex 12.8729 48.9366 4
      vertex 14.3292 49.9947 4
      vertex 12.3 50.7 4
    endloop
  endfacet
  facet normal 0 0 1
    outer loop
      vertex 16.2271 53.5532 4
      vertex 14.3729 53.5532 4
      vertex 15.6708 51.8413 4
    endloop
  endfacet
  facet normal 0 -0 1
    outer loop
      vertex 14.3292 49.9947 4
      vertex 14.3292 51.4053 4
      vertex 12.3 50.7 4
    endloop
  endfacet
  facet normal 0 -0 1
    outer loop
      vertex 14.3292 51.4053 4
      vertex 14.3729 53.5532 4
      vertex 12.8729 52.4634 4
    endloop
  endfacet
  facet normal 0 0 1
    outer loop
      vertex 16.2271 53.5532 4
      vertex 15.6708 51.8413 4
      vertex 17.7271 52.4634 4
    endloop
  endfacet
  facet normal 0 0 1
    outer loop
      vertex 16.5 50.7 4
      vertex 18.3 50.7 4
      vertex 17.7271 52.4634 4
    endloop
  endfacet
  facet normal 0 0 1
    outer loop
      vertex 17.7271 48.9366 4
      vertex 15.6708 49.5587 4
      vertex 16.2271 47.8468 4
    endloop
  endfacet
  facet normal 0 -0 1
    outer loop
      vertex 16.5 50.7 4
      vertex 17.7271 52.4634 4
      vertex 15.6708 51.8413 4
    endloop
  endfacet
  facet normal 0 0 1
    outer loop
      vertex 16.2271 47.8468 4
      vertex 15.6708 49.5587 4
      vertex 14.3729 47.8468 4
    endloop
  endfacet
  facet normal 0 -1 0
    outer loop
      vertex 16.2271 47.8468 0
      vertex 14.3729 47.8468 4
      vertex 14.3729 47.8468 0
    endloop
  endfacet
  facet normal 0 -1 0
    outer loop
      vertex 16.2271 47.8468 0
      vertex 16.2271 47.8468 4
      vertex 14.3729 47.8468 4
    endloop
  endfacet
  facet normal 0.951057 -0.309017 0
    outer loop
      vertex 18.3 50.7 0
      vertex 17.7271 48.9366 4
      vertex 17.7271 48.9366 0
    endloop
  endfacet
  facet normal 0.951057 -0.309017 0
    outer loop
      vertex 18.3 50.7 0
      vertex 18.3 50.7 4
      vertex 17.7271 48.9366 4
    endloop
  endfacet
  facet normal -0.951057 -0.309017 0
    outer loop
      vertex 86.4729 48.9366 4
      vertex 85.9 50.7 4
      vertex 85.9 50.7 0
    endloop
  endfacet
  facet normal -0.951057 -0.309017 0
    outer loop
      vertex 86.4729 48.9366 0
      vertex 86.4729 48.9366 4
      vertex 85.9 50.7 0
    endloop
  endfacet
  facet normal 0 1 0
    outer loop
      vertex 87.9729 53.5532 4
      vertex 89.8271 53.5532 0
      vertex 87.9729 53.5532 0
    endloop
  endfacet
  facet normal -0 1 0
    outer loop
      vertex 87.9729 53.5532 4
      vertex 89.8271 53.5532 4
      vertex 89.8271 53.5532 0
    endloop
  endfacet
  facet normal 0.951057 0.309017 0
    outer loop
      vertex 91.9 50.7 4
      vertex 91.9 50.7 0
      vertex 91.3271 52.4634 0
    endloop
  endfacet
  facet normal 0.951057 0.309017 0
    outer loop
      vertex 91.3271 52.4634 4
      vertex 91.9 50.7 4
      vertex 91.3271 52.4634 0
    endloop
  endfacet
  facet normal -0.587785 -0.809017 0
    outer loop
      vertex 87.9729 47.8468 0
      vertex 86.4729 48.9366 4
      vertex 86.4729 48.9366 0
    endloop
  endfacet
  facet normal -0.587785 -0.809017 0
    outer loop
      vertex 87.9729 47.8468 0
      vertex 87.9729 47.8468 4
      vertex 86.4729 48.9366 4
    endloop
  endfacet
  facet normal -0.951057 0.309017 0
    outer loop
      vertex 85.9 50.7 4
      vertex 86.4729 52.4634 0
      vertex 85.9 50.7 0
    endloop
  endfacet
  facet normal -0.951057 0.309017 0
    outer loop
      vertex 85.9 50.7 4
      vertex 86.4729 52.4634 4
      vertex 86.4729 52.4634 0
    endloop
  endfacet
  facet normal 0.587785 -0.809017 0
    outer loop
      vertex 91.3271 48.9366 0
      vertex 89.8271 47.8468 4
      vertex 89.8271 47.8468 0
    endloop
  endfacet
  facet normal 0.587785 -0.809017 0
    outer loop
      vertex 91.3271 48.9366 0
      vertex 91.3271 48.9366 4
      vertex 89.8271 47.8468 4
    endloop
  endfacet
  facet normal 0.587785 0.809017 0
    outer loop
      vertex 89.8271 53.5532 4
      vertex 91.3271 52.4634 0
      vertex 89.8271 53.5532 0
    endloop
  endfacet
  facet normal 0.587785 0.809017 0
    outer loop
      vertex 89.8271 53.5532 4
      vertex 91.3271 52.4634 4
      vertex 91.3271 52.4634 0
    endloop
  endfacet
  facet normal -0.587785 0.809017 0
    outer loop
      vertex 86.4729 52.4634 4
      vertex 87.9729 53.5532 0
      vertex 86.4729 52.4634 0
    endloop
  endfacet
  facet normal -0.587785 0.809017 0
    outer loop
      vertex 86.4729 52.4634 4
      vertex 87.9729 53.5532 4
      vertex 87.9729 53.5532 0
    endloop
  endfacet
  facet normal 0 0 1
    outer loop
      vertex 87.9292 51.4053 4
      vertex 86.4729 52.4634 4
      vertex 85.9 50.7 4
    endloop
  endfacet
  facet normal 0 0 1
    outer loop
      vertex 91.3271 48.9366 4
      vertex 90.1 50.7 4
      vertex 89.2708 49.5587 4
    endloop
  endfacet
  facet normal 0 0 1
    outer loop
      vertex 87.9729 47.8468 4
      vertex 87.9292 49.9947 4
      vertex 86.4729 48.9366 4
    endloop
  endfacet
  facet normal 0 0 1
    outer loop
      vertex 89.2708 49.5587 4
      vertex 87.9292 49.9947 4
      vertex 87.9729 47.8468 4
    endloop
  endfacet
  facet normal 0 0 1
    outer loop
      vertex 87.9729 53.5532 4
      vertex 87.9292 51.4053 4
      vertex 89.2708 51.8413 4
    endloop
  endfacet
  facet normal 0 -0 1
    outer loop
      vertex 91.3271 48.9366 4
      vertex 91.9 50.7 4
      vertex 90.1 50.7 4
    endloop
  endfacet
  facet normal 0 -0 1
    outer loop
      vertex 86.4729 48.9366 4
      vertex 87.9292 49.9947 4
      vertex 85.9 50.7 4
    endloop
  endfacet
  facet normal 0 0 1
    outer loop
      vertex 89.8271 53.5532 4
      vertex 87.9729 53.5532 4
      vertex 89.2708 51.8413 4
    endloop
  endfacet
  facet normal 0 -0 1
    outer loop
      vertex 87.9292 49.9947 4
      vertex 87.9292 51.4053 4
      vertex 85.9 50.7 4
    endloop
  endfacet
  facet normal 0 -0 1
    outer loop
      vertex 87.9292 51.4053 4
      vertex 87.9729 53.5532 4
      vertex 86.4729 52.4634 4
    endloop
  endfacet
  facet normal 0 0 1
    outer loop
      vertex 89.8271 53.5532 4
      vertex 89.2708 51.8413 4
      vertex 91.3271 52.4634 4
    endloop
  endfacet
  facet normal 0 0 1
    outer loop
      vertex 90.1 50.7 4
      vertex 91.9 50.7 4
      vertex 91.3271 52.4634 4
    endloop
  endfacet
  facet normal 0 0 1
    outer loop
      vertex 91.3271 48.9366 4
      vertex 89.2708 49.5587 4
      vertex 89.8271 47.8468 4
    endloop
  endfacet
  facet normal 0 -0 1
    outer loop
      vertex 90.1 50.7 4
      vertex 91.3271 52.4634 4
      vertex 89.2708 51.8413 4
    endloop
  endfacet
  facet normal 0 0 1
    outer loop
      vertex 89.8271 47.8468 4
      vertex 89.2708 49.5587 4
      vertex 87.9729 47.8468 4
    endloop
  endfacet
  facet normal 0 -1 0
    outer loop
      vertex 89.8271 47.8468 0
      vertex 87.9729 47.8468 4
      vertex 87.9729 47.8468 0
    endloop
  endfacet
  facet normal 0 -1 0
    outer loop
      vertex 89.8271 47.8468 0
      vertex 89.8271 47.8468 4
      vertex 87.9729 47.8468 4
    endloop
  endfacet
  facet normal 0.951057 -0.309017 0
    outer loop
      vertex 91.9 50.7 0
      vertex 91.3271 48.9366 4
      vertex 91.3271 48.9366 0
    endloop
  endfacet
  facet normal 0.951057 -0.309017 0
    outer loop
      vertex 91.9 50.7 0
      vertex 91.9 50.7 4
      vertex 91.3271 48.9366 4
    endloop
  endfacet
  facet normal 1 -0 0
    outer loop
      vertex 13.0292 1.79466 4
      vertex 13.0292 3.20534 -4
      vertex 13.0292 3.20534 4
    endloop
  endfacet
  facet normal 1 0 0
    outer loop
      vertex 13.0292 1.79466 4
      vertex 13.0292 1.79466 -4
      vertex 13.0292 3.20534 -4
    endloop
  endfacet
  facet normal -0.809017 0.587785 0
    outer loop
      vertex 15.2 2.5 -4
      vertex 14.3708 1.35873 4
      vertex 15.2 2.5 4
    endloop
  endfacet
  facet normal -0.809017 0.587785 0
    outer loop
      vertex 15.2 2.5 -4
      vertex 14.3708 1.35873 -4
      vertex 14.3708 1.35873 4
    endloop
  endfacet
  facet normal 0.309017 0.951057 -0
    outer loop
      vertex 14.3708 1.35873 -4
      vertex 13.0292 1.79466 4
      vertex 14.3708 1.35873 4
    endloop
  endfacet
  facet normal 0.309017 0.951057 0
    outer loop
      vertex 14.3708 1.35873 -4
      vertex 13.0292 1.79466 -4
      vertex 13.0292 1.79466 4
    endloop
  endfacet
  facet normal 0.309017 -0.951057 0
    outer loop
      vertex 13.0292 3.20534 4
      vertex 14.3708 3.64127 -4
      vertex 14.3708 3.64127 4
    endloop
  endfacet
  facet normal 0.309017 -0.951057 0
    outer loop
      vertex 13.0292 3.20534 4
      vertex 13.0292 3.20534 -4
      vertex 14.3708 3.64127 -4
    endloop
  endfacet
  facet normal -0.809017 -0.587785 0
    outer loop
      vertex 14.3708 3.64127 -4
      vertex 15.2 2.5 -4
      vertex 15.2 2.5 4
    endloop
  endfacet
  facet normal -0.809017 -0.587785 -0
    outer loop
      vertex 14.3708 3.64127 4
      vertex 14.3708 3.64127 -4
      vertex 15.2 2.5 4
    endloop
  endfacet
  facet normal 1 -0 0
    outer loop
      vertex 95.5792 1.79466 4
      vertex 95.5792 3.20534 -4
      vertex 95.5792 3.20534 4
    endloop
  endfacet
  facet normal 1 0 0
    outer loop
      vertex 95.5792 1.79466 4
      vertex 95.5792 1.79466 -4
      vertex 95.5792 3.20534 -4
    endloop
  endfacet
  facet normal -0.809017 0.587785 0
    outer loop
      vertex 97.75 2.5 -4
      vertex 96.9208 1.35873 4
      vertex 97.75 2.5 4
    endloop
  endfacet
  facet normal -0.809017 0.587785 0
    outer loop
      vertex 97.75 2.5 -4
      vertex 96.9208 1.35873 -4
      vertex 96.9208 1.35873 4
    endloop
  endfacet
  facet normal 0.309017 0.951057 -0
    outer loop
      vertex 96.9208 1.35873 -4
      vertex 95.5792 1.79466 4
      vertex 96.9208 1.35873 4
    endloop
  endfacet
  facet normal 0.309017 0.951057 0
    outer loop
      vertex 96.9208 1.35873 -4
      vertex 95.5792 1.79466 -4
      vertex 95.5792 1.79466 4
    endloop
  endfacet
  facet normal 0.309017 -0.951057 0
    outer loop
      vertex 95.5792 3.20534 4
      vertex 96.9208 3.64127 -4
      vertex 96.9208 3.64127 4
    endloop
  endfacet
  facet normal 0.309017 -0.951057 0
    outer loop
      vertex 95.5792 3.20534 4
      vertex 95.5792 3.20534 -4
      vertex 96.9208 3.64127 -4
    endloop
  endfacet
  facet normal -0.809017 -0.587785 0
    outer loop
      vertex 96.9208 3.64127 -4
      vertex 97.75 2.5 -4
      vertex 97.75 2.5 4
    endloop
  endfacet
  facet normal -0.809017 -0.587785 -0
    outer loop
      vertex 96.9208 3.64127 4
      vertex 96.9208 3.64127 -4
      vertex 97.75 2.5 4
    endloop
  endfacet
  facet normal 1 -0 0
    outer loop
      vertex 14.3292 49.9947 4
      vertex 14.3292 51.4053 -4
      vertex 14.3292 51.4053 4
    endloop
  endfacet
  facet normal 1 0 0
    outer loop
      vertex 14.3292 49.9947 4
      vertex 14.3292 49.9947 -4
      vertex 14.3292 51.4053 -4
    endloop
  endfacet
  facet normal -0.809017 0.587785 0
    outer loop
      vertex 16.5 50.7 -4
      vertex 15.6708 49.5587 4
      vertex 16.5 50.7 4
    endloop
  endfacet
  facet normal -0.809017 0.587785 0
    outer loop
      vertex 16.5 50.7 -4
      vertex 15.6708 49.5587 -4
      vertex 15.6708 49.5587 4
    endloop
  endfacet
  facet normal 0.309017 0.951057 -0
    outer loop
      vertex 15.6708 49.5587 -4
      vertex 14.3292 49.9947 4
      vertex 15.6708 49.5587 4
    endloop
  endfacet
  facet normal 0.309017 0.951057 0
    outer loop
      vertex 15.6708 49.5587 -4
      vertex 14.3292 49.9947 -4
      vertex 14.3292 49.9947 4
    endloop
  endfacet
  facet normal 0.309017 -0.951057 0
    outer loop
      vertex 14.3292 51.4053 4
      vertex 15.6708 51.8413 -4
      vertex 15.6708 51.8413 4
    endloop
  endfacet
  facet normal 0.309017 -0.951057 0
    outer loop
      vertex 14.3292 51.4053 4
      vertex 14.3292 51.4053 -4
      vertex 15.6708 51.8413 -4
    endloop
  endfacet
  facet normal -0.809017 -0.587785 0
    outer loop
      vertex 15.6708 51.8413 -4
      vertex 16.5 50.7 -4
      vertex 16.5 50.7 4
    endloop
  endfacet
  facet normal -0.809017 -0.587785 -0
    outer loop
      vertex 15.6708 51.8413 4
      vertex 15.6708 51.8413 -4
      vertex 16.5 50.7 4
    endloop
  endfacet
  facet normal 1 -0 0
    outer loop
      vertex 87.9292 49.9947 4
      vertex 87.9292 51.4053 -4
      vertex 87.9292 51.4053 4
    endloop
  endfacet
  facet normal 1 0 0
    outer loop
      vertex 87.9292 49.9947 4
      vertex 87.9292 49.9947 -4
      vertex 87.9292 51.4053 -4
    endloop
  endfacet
  facet normal -0.809017 0.587785 0
    outer loop
      vertex 90.1 50.7 -4
      vertex 89.2708 49.5587 4
      vertex 90.1 50.7 4
    endloop
  endfacet
  facet normal -0.809017 0.587785 0
    outer loop
      vertex 90.1 50.7 -4
      vertex 89.2708 49.5587 -4
      vertex 89.2708 49.5587 4
    endloop
  endfacet
  facet normal 0.309017 0.951057 -0
    outer loop
      vertex 89.2708 49.5587 -4
      vertex 87.9292 49.9947 4
      vertex 89.2708 49.5587 4
    endloop
  endfacet
  facet normal 0.309017 0.951057 0
    outer loop
      vertex 89.2708 49.5587 -4
      vertex 87.9292 49.9947 -4
      vertex 87.9292 49.9947 4
    endloop
  endfacet
  facet normal 0.309017 -0.951057 0
    outer loop
      vertex 87.9292 51.4053 4
      vertex 89.2708 51.8413 -4
      vertex 89.2708 51.8413 4
    endloop
  endfacet
  facet normal 0.309017 -0.951057 0
    outer loop
      vertex 87.9292 51.4053 4
      vertex 87.9292 51.4053 -4
      vertex 89.2708 51.8413 -4
    endloop
  endfacet
  facet normal -0.809017 -0.587785 0
    outer loop
      vertex 89.2708 51.8413 -4
      vertex 90.1 50.7 -4
      vertex 90.1 50.7 4
    endloop
  endfacet
  facet normal -0.809017 -0.587785 -0
    outer loop
      vertex 89.2708 51.8413 4
      vertex 89.2708 51.8413 -4
      vertex 90.1 50.7 4
    endloop
  endfacet
endsolid OpenSCAD_Model
